<svg width="20" height="20" fill="none" xmlns="http://www.w3.org/2000/svg"><path d="M10 19.167A9.167 9.167 0 1 0 10 .833a9.167 9.167 0 0 0 0 18.334Z" stroke="#000" stroke-width="1.5"/><path d="M11.835 5.417a1.833 1.833 0 1 1-3.667 0 1.833 1.833 0 0 1 3.667 0Z" stroke="#000" stroke-width="1.5"/><path d="M15.5 8.166S12.258 9.541 10 9.541 4.5 8.166 4.5 8.166M10 10v1.33m0 0c0 .528.151 1.045.436 1.489l2.314 3.597M10 11.331a2.75 2.75 0 0 1-.436 1.488L7.25 16.416" stroke="#000" stroke-width="1.5" stroke-linecap="round"/></svg>