<svg width="19" height="21" viewBox="0 0 19 21" fill="none" xmlns="http://www.w3.org/2000/svg">
<path d="M9.00065 10.0833C9.60844 10.0833 10.1913 9.84189 10.6211 9.41212C11.0509 8.98235 11.2923 8.39945 11.2923 7.79167C11.2923 7.18388 11.0509 6.60098 10.6211 6.17121C10.1913 5.74144 9.60844 5.5 9.00065 5.5C8.39286 5.5 7.80997 5.74144 7.3802 6.17121C6.95043 6.60098 6.70898 7.18388 6.70898 7.79167C6.70898 8.39945 6.95043 8.98235 7.3802 9.41212C7.80997 9.84189 8.39286 10.0833 9.00065 10.0833Z" stroke="black" stroke-width="1.5" stroke-miterlimit="2"/>
<path d="M8.54232 13.2917L7.62565 16.5001M8.54232 13.2917L1.20898 10.5417M8.54232 13.2917L14.0423 12.3751L16.8107 10.0971M7.62565 16.5001L3.50065 15.5834L1.20898 20.1667M7.62565 16.5001L8.54232 20.1667H13.584M3.50065 1.83338C9.91732 0.916718 14.5007 2.75005 18.1673 6.87505" stroke="black" stroke-width="1.5" stroke-miterlimit="2" stroke-linecap="round" stroke-linejoin="round"/>
</svg>
