<svg width="16" height="15" fill="none" xmlns="http://www.w3.org/2000/svg"><path d="M1.332 7c0-2.514 0-3.771.781-4.552.781-.781 2.038-.781 4.552-.781h2.667c2.514 0 3.771 0 4.552.781.781.78.781 2.038.781 4.552v1.333c0 2.514 0 3.772-.781 4.552-.78.782-2.038.782-4.552.782H6.665c-2.514 0-3.771 0-4.552-.782-.781-.78-.781-2.038-.781-4.552V7Z" stroke="#fff"/><path d="M4.664 1.667v-1m6.667 1v-1M1.664 5h12.667" stroke="#fff" stroke-linecap="round"/><path d="M12 10.333a.666.666 0 1 1-1.333 0 .666.666 0 0 1 1.333 0Zm0-2.666a.666.666 0 1 1-1.333 0 .666.666 0 0 1 1.333 0Zm-3.333 2.666a.667.667 0 1 1-1.334 0 .667.667 0 0 1 1.334 0Zm0-2.666a.667.667 0 1 1-1.334 0 .667.667 0 0 1 1.334 0Zm-3.334 2.666a.667.667 0 1 1-1.333 0 .667.667 0 0 1 1.333 0Zm0-2.666a.667.667 0 1 1-1.333 0 .667.667 0 0 1 1.333 0Z" fill="#fff"/></svg>