<svg width="19" height="20" viewBox="0 0 19 20" fill="none" xmlns="http://www.w3.org/2000/svg">
<path d="M2.20312 10.037C2.20312 7.24368 2.20312 5.84664 3.07127 4.97923C3.93868 4.11108 5.33572 4.11108 8.12905 4.11108H11.092C13.8853 4.11108 15.2824 4.11108 16.1498 4.97923C17.0179 5.84664 17.0179 7.24368 17.0179 10.037V11.5185C17.0179 14.3118 17.0179 15.7089 16.1498 16.5763C15.2824 17.4444 13.8853 17.4444 11.092 17.4444H8.12905C5.33572 17.4444 3.93868 17.4444 3.07127 16.5763C2.20312 15.7089 2.20312 14.3118 2.20312 11.5185V10.037Z" stroke="#717F7A"/>
<path d="M5.9056 4.11111V3M13.313 4.11111V3M2.57227 7.81482H16.6463" stroke="#717F7A" stroke-linecap="round"/>
<path d="M14.0569 13.7408C14.0569 13.9373 13.9788 14.1257 13.8399 14.2646C13.701 14.4035 13.5126 14.4816 13.3161 14.4816C13.1197 14.4816 12.9312 14.4035 12.7923 14.2646C12.6534 14.1257 12.5754 13.9373 12.5754 13.7408C12.5754 13.5444 12.6534 13.3559 12.7923 13.217C12.9312 13.0781 13.1197 13.0001 13.3161 13.0001C13.5126 13.0001 13.701 13.0781 13.8399 13.217C13.9788 13.3559 14.0569 13.5444 14.0569 13.7408ZM14.0569 10.7779C14.0569 10.9743 13.9788 11.1627 13.8399 11.3016C13.701 11.4405 13.5126 11.5186 13.3161 11.5186C13.1197 11.5186 12.9312 11.4405 12.7923 11.3016C12.6534 11.1627 12.5754 10.9743 12.5754 10.7779C12.5754 10.5814 12.6534 10.393 12.7923 10.2541C12.9312 10.1152 13.1197 10.0371 13.3161 10.0371C13.5126 10.0371 13.701 10.1152 13.8399 10.2541C13.9788 10.393 14.0569 10.5814 14.0569 10.7779ZM10.3532 13.7408C10.3532 13.9373 10.2751 14.1257 10.1362 14.2646C9.99728 14.4035 9.80887 14.4816 9.61241 14.4816C9.41596 14.4816 9.22755 14.4035 9.08863 14.2646C8.94971 14.1257 8.87167 13.9373 8.87167 13.7408C8.87167 13.5444 8.94971 13.3559 9.08863 13.217C9.22755 13.0781 9.41596 13.0001 9.61241 13.0001C9.80887 13.0001 9.99728 13.0781 10.1362 13.217C10.2751 13.3559 10.3532 13.5444 10.3532 13.7408ZM10.3532 10.7779C10.3532 10.9743 10.2751 11.1627 10.1362 11.3016C9.99728 11.4405 9.80887 11.5186 9.61241 11.5186C9.41596 11.5186 9.22755 11.4405 9.08863 11.3016C8.94971 11.1627 8.87167 10.9743 8.87167 10.7779C8.87167 10.5814 8.94971 10.393 9.08863 10.2541C9.22755 10.1152 9.41596 10.0371 9.61241 10.0371C9.80887 10.0371 9.99728 10.1152 10.1362 10.2541C10.2751 10.393 10.3532 10.5814 10.3532 10.7779ZM6.64945 13.7408C6.64945 13.9373 6.57141 14.1257 6.43249 14.2646C6.29358 14.4035 6.10517 14.4816 5.90871 14.4816C5.71225 14.4816 5.52384 14.4035 5.38493 14.2646C5.24601 14.1257 5.16797 13.9373 5.16797 13.7408C5.16797 13.5444 5.24601 13.3559 5.38493 13.217C5.52384 13.0781 5.71225 13.0001 5.90871 13.0001C6.10517 13.0001 6.29358 13.0781 6.43249 13.217C6.57141 13.3559 6.64945 13.5444 6.64945 13.7408ZM6.64945 10.7779C6.64945 10.9743 6.57141 11.1627 6.43249 11.3016C6.29358 11.4405 6.10517 11.5186 5.90871 11.5186C5.71225 11.5186 5.52384 11.4405 5.38493 11.3016C5.24601 11.1627 5.16797 10.9743 5.16797 10.7779C5.16797 10.5814 5.24601 10.393 5.38493 10.2541C5.52384 10.1152 5.71225 10.0371 5.90871 10.0371C6.10517 10.0371 6.29358 10.1152 6.43249 10.2541C6.57141 10.393 6.64945 10.5814 6.64945 10.7779Z" fill="#717F7A"/>
</svg>
