<svg width="16" height="15" viewBox="0 0 16 15" fill="none" xmlns="http://www.w3.org/2000/svg">
<path d="M1.33203 6.99996C1.33203 4.48596 1.33203 3.22863 2.11336 2.44796C2.89403 1.66663 4.15136 1.66663 6.66536 1.66663H9.33203C11.846 1.66663 13.1034 1.66663 13.884 2.44796C14.6654 3.22863 14.6654 4.48596 14.6654 6.99996V8.33329C14.6654 10.8473 14.6654 12.1046 13.884 12.8853C13.1034 13.6666 11.846 13.6666 9.33203 13.6666H6.66536C4.15136 13.6666 2.89403 13.6666 2.11336 12.8853C1.33203 12.1046 1.33203 10.8473 1.33203 8.33329V6.99996Z" stroke="white"/>
<path d="M4.66406 1.66663V0.666626M11.3307 1.66663V0.666626M1.66406 4.99996H14.3307" stroke="white" stroke-linecap="round"/>
<path d="M12 10.3333C12 10.5101 11.9298 10.6797 11.8047 10.8047C11.6797 10.9298 11.5101 11 11.3333 11C11.1565 11 10.987 10.9298 10.8619 10.8047C10.7369 10.6797 10.6667 10.5101 10.6667 10.3333C10.6667 10.1565 10.7369 9.98695 10.8619 9.86193C10.987 9.7369 11.1565 9.66667 11.3333 9.66667C11.5101 9.66667 11.6797 9.7369 11.8047 9.86193C11.9298 9.98695 12 10.1565 12 10.3333ZM12 7.66667C12 7.84348 11.9298 8.01305 11.8047 8.13807C11.6797 8.2631 11.5101 8.33333 11.3333 8.33333C11.1565 8.33333 10.987 8.2631 10.8619 8.13807C10.7369 8.01305 10.6667 7.84348 10.6667 7.66667C10.6667 7.48986 10.7369 7.32029 10.8619 7.19526C10.987 7.07024 11.1565 7 11.3333 7C11.5101 7 11.6797 7.07024 11.8047 7.19526C11.9298 7.32029 12 7.48986 12 7.66667ZM8.66667 10.3333C8.66667 10.5101 8.59643 10.6797 8.4714 10.8047C8.34638 10.9298 8.17681 11 8 11C7.82319 11 7.65362 10.9298 7.5286 10.8047C7.40357 10.6797 7.33333 10.5101 7.33333 10.3333C7.33333 10.1565 7.40357 9.98695 7.5286 9.86193C7.65362 9.7369 7.82319 9.66667 8 9.66667C8.17681 9.66667 8.34638 9.7369 8.4714 9.86193C8.59643 9.98695 8.66667 10.1565 8.66667 10.3333ZM8.66667 7.66667C8.66667 7.84348 8.59643 8.01305 8.4714 8.13807C8.34638 8.2631 8.17681 8.33333 8 8.33333C7.82319 8.33333 7.65362 8.2631 7.5286 8.13807C7.40357 8.01305 7.33333 7.84348 7.33333 7.66667C7.33333 7.48986 7.40357 7.32029 7.5286 7.19526C7.65362 7.07024 7.82319 7 8 7C8.17681 7 8.34638 7.07024 8.4714 7.19526C8.59643 7.32029 8.66667 7.48986 8.66667 7.66667ZM5.33333 10.3333C5.33333 10.5101 5.2631 10.6797 5.13807 10.8047C5.01305 10.9298 4.84348 11 4.66667 11C4.48986 11 4.32029 10.9298 4.19526 10.8047C4.07024 10.6797 4 10.5101 4 10.3333C4 10.1565 4.07024 9.98695 4.19526 9.86193C4.32029 9.7369 4.48986 9.66667 4.66667 9.66667C4.84348 9.66667 5.01305 9.7369 5.13807 9.86193C5.2631 9.98695 5.33333 10.1565 5.33333 10.3333ZM5.33333 7.66667C5.33333 7.84348 5.2631 8.01305 5.13807 8.13807C5.01305 8.2631 4.84348 8.33333 4.66667 8.33333C4.48986 8.33333 4.32029 8.2631 4.19526 8.13807C4.07024 8.01305 4 7.84348 4 7.66667C4 7.48986 4.07024 7.32029 4.19526 7.19526C4.32029 7.07024 4.48986 7 4.66667 7C4.84348 7 5.01305 7.07024 5.13807 7.19526C5.2631 7.32029 5.33333 7.48986 5.33333 7.66667Z" fill="white"/>
</svg>
