<svg width="19" height="18" fill="none" xmlns="http://www.w3.org/2000/svg"><path d="M9.5 0c.19 0 .37.073.505.203.133.13.208.306.208.49v.692h1.424c.567 0 1.11.218 1.511.608.401.39.626.918.626 1.469v3.461h2.138c.567 0 1.11.219 1.511.608.401.39.626.918.626 1.469v6.923c0 .55-.225 1.08-.626 1.469-.4.39-.944.608-1.511.608H3.087a2.17 2.17 0 0 1-1.512-.608c-.4-.39-.626-.918-.626-1.469V9.406c0-.347.09-.687.26-.992.17-.304.416-.562.715-.75l2.85-1.796c.147-.091.296-.165.45-.217V3.46c0-.55.225-1.079.626-1.468.401-.39.945-.608 1.512-.608h1.426V.692c0-.183.075-.36.209-.49A.723.723 0 0 1 9.5 0ZM6.65 5.652c.8.277 1.424 1.01 1.424 1.96v9.003h2.85V9c0-.43.137-.849.392-1.2.255-.35.616-.616 1.033-.76V3.463a.682.682 0 0 0-.209-.49.723.723 0 0 0-.503-.203H7.362a.723.723 0 0 0-.504.203.683.683 0 0 0-.209.49v2.19Zm6.412 2.656a.723.723 0 0 0-.504.202.683.683 0 0 0-.209.49v7.615h3.563c.189 0 .37-.073.504-.202a.682.682 0 0 0 .208-.49V9a.682.682 0 0 0-.208-.49.723.723 0 0 0-.504-.202h-2.85ZM5.549 7.03 2.7 8.826a.7.7 0 0 0-.238.25.677.677 0 0 0-.087.331v6.516c0 .184.075.36.209.49s.315.202.504.202h3.562V7.611a.677.677 0 0 0-.1-.354.704.704 0 0 0-.272-.255.73.73 0 0 0-.728.028Z" fill="#1A3A37"/></svg>