<svg width="17" height="18" fill="none" xmlns="http://www.w3.org/2000/svg"><path d="M15.813 9.844h-13.5V3.516a1.802 1.802 0 0 1 .53-1.283l.015-.014a1.817 1.817 0 0 1 2.06-.357 2.78 2.78 0 0 0 .414 3.397l.385.385-.709.708.796.796.709-.709 3.926-3.926.709-.709-.796-.795-.708.708-.385-.385a2.78 2.78 0 0 0-3.549-.315 2.94 2.94 0 0 0-3.648.406l-.014.014a2.92 2.92 0 0 0-.86 2.079v6.328H.063v1.125h1.125v1.08c0 .09.014.18.043.266l1.046 3.14a.843.843 0 0 0 .8.576h.454l-.41 1.407h1.172l.41-1.407h7.316l.422 1.407h1.174l-.422-1.407h.73a.843.843 0 0 0 .8-.577l1.046-3.14a.843.843 0 0 0 .043-.266v-1.08h1.126V9.845h-1.125ZM6.127 2.128a1.653 1.653 0 0 1 2.335 0l.385.385-2.335 2.335-.385-.385a1.653 1.653 0 0 1 0-2.335Zm8.56 9.874-.968 2.904H3.28l-.967-2.904V10.97h12.374v1.033Z" fill="#1A3A37"/></svg>