<svg width="19" height="15" fill="none" xmlns="http://www.w3.org/2000/svg"><path d="M2.75 10.46v2.812a1.688 1.688 0 0 0 1.687 1.687h3.375a.562.562 0 0 0 .562-.562v-4.5a.562.562 0 0 1 .563-.563h1.125a.562.562 0 0 1 .563.563v4.5c0 .31.252.562.562.562h3.375a1.688 1.688 0 0 0 1.688-1.687v-2.813a.562.562 0 0 0-1.126 0v2.813a.563.563 0 0 1-.562.562h-3.375l.563.563v-4.5a1.687 1.687 0 0 0-1.688-1.688H8.937a1.687 1.687 0 0 0-1.688 1.688v4.5l.563-.563H4.437a.562.562 0 0 1-.563-.562v-2.813a.562.562 0 1 0-1.125 0Zm-1.29-.728L9.101 2.09a.563.563 0 0 1 .795 0l7.643 7.643a.562.562 0 1 0 .794-.796l-7.641-7.643a1.688 1.688 0 0 0-2.387 0L.664 8.937a.563.563 0 1 0 .795.795Zm11.977-5.46V3.147l-.563.562h2.813l-.563-.562v3.937a.562.562 0 1 0 1.126 0V3.147a.562.562 0 0 0-.563-.563h-2.813a.563.563 0 0 0-.562.563v1.125a.562.562 0 1 0 1.125 0Z" fill="#1A3A37"/></svg>