<svg width="20" height="20" fill="none" xmlns="http://www.w3.org/2000/svg"><path d="M13.209.833a4.108 4.108 0 0 0-4.125 4.125 4.108 4.108 0 0 0 4.125 4.125c.825 0 1.558-.275 2.2-.641l2.842 2.841L19.534 10l-2.842-2.842c.367-.641.642-1.375.642-2.2A4.108 4.108 0 0 0 13.209.833ZM2.667 2.667A1.833 1.833 0 0 0 .834 4.5v12.833a1.833 1.833 0 0 0 1.833 1.834h12.834a1.833 1.833 0 0 0 1.833-1.834V12.75l-1.833-1.833v6.416H2.667V4.5h4.611c.055-.642.211-1.237.431-1.833H2.667Zm10.542 0a2.27 2.27 0 0 1 2.292 2.291 2.27 2.27 0 0 1-2.292 2.292 2.27 2.27 0 0 1-2.292-2.292 2.27 2.27 0 0 1 2.292-2.291Z" fill="#000"/></svg>