<svg width="21" height="21" fill="none" xmlns="http://www.w3.org/2000/svg"><path d="M20.382 8.553H19.33c-.163-2.324-1.164-4.498-2.802-6.085C14.889.883 12.736 0 10.5 0S6.11.882 4.473 2.469c-1.638 1.586-2.639 3.76-2.802 6.084H.618a.605.605 0 0 0-.437.189.658.658 0 0 0-.181.455 11.33 11.33 0 0 0 1.561 5.732 10.717 10.717 0 0 0 4.204 4.039v.53c0 .398.152.78.422 1.062.27.282.637.44 1.019.44h6.588c.382 0 .749-.158 1.02-.44.27-.282.421-.664.421-1.062v-.53a10.717 10.717 0 0 0 4.204-4.039A11.33 11.33 0 0 0 21 9.197a.658.658 0 0 0-.18-.455.605.605 0 0 0-.438-.189ZM15.26 3.005c.299.25.58.522.839.815a8.746 8.746 0 0 0-3.12 1.798 9.176 9.176 0 0 0-2.187 2.935H7.344a7.965 7.965 0 0 1 2.761-4.03 7.437 7.437 0 0 1 4.513-1.55c.214 0 .429.013.642.032Zm1.653 1.915a8.112 8.112 0 0 1 1.178 3.633h-5.895c.517-.9 1.2-1.686 2.01-2.31a7.473 7.473 0 0 1 2.707-1.323ZM10.5 1.257c.944-.002 1.88.18 2.759.536A8.74 8.74 0 0 0 8.697 4.06 9.334 9.334 0 0 0 6.06 8.553H2.91c.157-1.986 1.025-3.84 2.43-5.19A7.46 7.46 0 0 1 10.5 1.257Zm3.86 16.722a.625.625 0 0 0-.262.237.663.663 0 0 0-.098.348v.934a.22.22 0 0 1-.06.152.202.202 0 0 1-.146.062H7.206a.202.202 0 0 1-.146-.062.22.22 0 0 1-.06-.152v-.934a.664.664 0 0 0-.098-.348.626.626 0 0 0-.262-.238 9.41 9.41 0 0 1-3.762-3.3 9.962 9.962 0 0 1-1.622-4.837h18.488a9.963 9.963 0 0 1-1.622 4.838 9.409 9.409 0 0 1-3.762 3.3Z" fill="#000"/></svg>