<svg width="19" height="18" fill="none" xmlns="http://www.w3.org/2000/svg"><path d="M3.786 4.857c0 .718.166 1.429.49 2.085A5.2 5.2 0 0 0 5.661 8.67a5.889 5.889 0 0 0 2.046 1.073c.757.226 1.56.305 2.353.235 1.438-.159 2.76-.79 3.711-1.773.951-.983 1.465-2.248 1.442-3.551V1.429c0-.213-.065-.42-.19-.601a1.231 1.231 0 0 0-.512-.422 1.392 1.392 0 0 0-1.33.108L11.66 1.543h.762l-1.778-1.2a2.076 2.076 0 0 0-2.286 0l-1.778 1.2h.762L5.817.514a1.392 1.392 0 0 0-1.33-.108c-.21.095-.388.241-.512.422a1.06 1.06 0 0 0-.19.6v3.43Zm1.27 0V1.43l1.523 1.028a.692.692 0 0 0 .762 0l1.778-1.2a.683.683 0 0 1 .381-.114c.137 0 .271.04.38.114l1.779 1.2a.692.692 0 0 0 .762 0l1.523-1.028v3.234c.021 1.02-.378 2.013-1.121 2.784-.743.772-1.777 1.269-2.903 1.396a4.91 4.91 0 0 1-1.826-.188 4.577 4.577 0 0 1-1.586-.836 4.043 4.043 0 0 1-1.074-1.343 3.665 3.665 0 0 1-.378-1.619Zm3.81 4.572v8c0 .151.066.297.185.404.12.107.28.167.449.167.168 0 .33-.06.449-.167a.544.544 0 0 0 .186-.404v-8a.544.544 0 0 0-.186-.404.672.672 0 0 0-.449-.168c-.168 0-.33.06-.449.168a.544.544 0 0 0-.186.404Zm-4.538 2.903c1.247.217 2.081.82 2.01 1.15-.071.33-1.094.611-2.34.394-1.248-.217-2.082-.82-2.01-1.15.07-.33 1.093-.61 2.34-.394Zm.242-1.122c-1.845-.32-3.584.157-3.83 1.299-.245 1.143 1.171 2.168 3.016 2.49 1.845.32 3.584-.157 3.83-1.3.245-1.143-1.172-2.168-3.016-2.49Zm12.443 1.592c.071.331-.762.934-2.01 1.15-1.246.218-2.27-.063-2.34-.392-.071-.33.762-.934 2.01-1.15 1.246-.218 2.27.063 2.34.393Zm1.247-.216c-.245-1.143-1.984-1.62-3.829-1.3-1.844.322-3.26 1.347-3.015 2.49.245 1.143 1.984 1.62 3.829 1.299 1.844-.32 3.26-1.346 3.015-2.49Z" fill="#1A3A37"/></svg>