<svg width="19" height="18" fill="none" xmlns="http://www.w3.org/2000/svg"><g clip-path="url(#a)" fill="#1A3A37"><path d="M16.98 2.7H2.018c-.283 0-.555.11-.756.307a1.04 1.04 0 0 0-.313.743v10.5c0 .278.113.546.313.742.2.197.473.308.756.308H16.98c.284 0 .556-.11.756-.308.2-.197.313-.464.313-.742V3.75a1.04 1.04 0 0 0-.313-.743 1.079 1.079 0 0 0-.756-.307Zm0 11.55H2.018V3.75H16.98v10.5Z"/><path d="M5 11a.41.41 0 0 0 .275-.105.4.4 0 0 0 0-.565l-.86-.93h10.17l-.86.93a.4.4 0 0 0 0 .565.41.41 0 0 0 .434.07.39.39 0 0 0 .131-.095L16.045 9 14.31 7.13a.396.396 0 0 0-.565 0 .4.4 0 0 0 0 .565l.86.93H4.415l.86-.93a.4.4 0 0 0-.565-.565L2.955 9l1.735 1.87A.389.389 0 0 0 5 11Z"/></g><defs><clipPath id="a"><path fill="#fff" transform="translate(.5)" d="M0 0h18v18H0z"/></clipPath></defs></svg>