<svg width="119" height="96" fill="none" xmlns="http://www.w3.org/2000/svg"><g clip-path="url(#a)" fill="#000"><path d="m33.52 28.119-1.534-1.534L48.834 9.736 65.587 26.49l-1.534 1.533-15.219-15.219L33.52 28.119Z"/><path d="M80.088 28.023 64.869 12.804l-7.227 7.226-1.533-1.534 8.76-8.76L81.621 26.49l-1.533 1.533ZM56.3 2.17c-1.5 0-2.721 1.22-2.721 2.721 0 1.5 1.22 2.722 2.721 2.722 1.5 0 2.722-1.221 2.722-2.722 0-1.5-1.221-2.721-2.722-2.721Zm0 7.611a4.895 4.895 0 0 1-4.89-4.89A4.896 4.896 0 0 1 56.3.001a4.895 4.895 0 0 1 4.89 4.89 4.895 4.895 0 0 1-4.89 4.89M3.367 51.42c-.082-.082-.082-.055 0-.136 2.045-.11 3.71-.382 3.71-2.866 0-1.8-.655-2.564-2.455-2.564-.71 0-1.282.136-1.446.872-.19.847-.136 4.175-.136 5.185 0 2.129 0 4.257.108 6.359.028 1.01.464 1.2 1.447 1.2.246 0 .463-.027.71-.055 1.909-.191 2.974-2.182 2.974-3.956 0-3.275-2.184-3.902-4.912-4.04m2.974 8.706c-3.71-.055-3.52-.055-7.15-.027.492-.41.737-1.61.792-2.21.163-1.829.136-3.712.136-5.54 0-1.638 0-3.329-.11-4.994C-.044 46.4-.262 45.8-1 45.144c4.257.055 4.175.027 6.003 0 2.156-.054 5.077.272 5.077 3.056 0 1.719-1.256 2.566-2.702 3.084 2.237.273 4.148 1.61 4.148 4.038 0 3.084-2.239 4.858-5.185 4.803M26.073 60.097c-4.966-.027-2.4-.027-10.096 0 .573-.436.736-1.01.764-1.692.136-1.937.136-3.93.136-5.866 0-1.774 0-3.576-.136-5.321-.055-.82-.137-1.475-.71-2.074 3.303.055 6.604.055 9.906 0 .11.9.191 1.883.3 2.947h-.136c-1.118-1.664-3.656-2.156-5.402-2.047-.628.056-.71.655-.765 1.201-.11 1.474-.11 2.974-.11 4.448.846-.491 2.402-.628 3.385-.628.872 0 1.718.11 2.51.465.19.736.355 1.5.518 2.237h-.136c-.736-1.146-2.729-1.555-4.01-1.555-.574 0-1.801.109-2.266.436 0 1.855 0 3.766.137 5.622.027.382.109.818.518.872 2.756.355 5.185-.49 6.577-2.483h.109c-.246 1.12-.682 2.429-1.092 3.438M37.398 46.017c-.3-.027-1.582-.027-1.747.055-.299.163-.299.845-.327 1.146-.109 1.582-.109 3.165-.109 4.747 0 .793.027 6.932.3 7.123.247.164.573.164.819.164 4.23 0 6.222-2.538 6.222-6.713 0-3.466-1.365-6.413-5.158-6.521m3.165 13.561a10.046 10.046 0 0 1-3.492.546c-2.183-.027-3.766-.055-5.65-.027.52-.41.765-1.063.793-1.691.082-1.828.082-3.685.082-5.513 0-1.828-.027-3.765-.082-5.649-.028-.79-.11-1.473-.655-2.101 3.547.055 3.11.027 6.112 0 4.612-.081 8.16 2.566 8.16 7.395 0 3.356-2.157 6.003-5.268 7.04ZM57.838 45.416c-3.056 0-4.83 2.43-4.83 7.04 0 4.612 1.692 7.287 4.83 7.287 2.948 0 4.83-2.675 4.83-7.286 0-4.612-1.773-7.04-4.83-7.04m0 15.117c-4.53 0-8.104-3.301-8.104-8.077s3.273-7.777 8.104-7.777c4.72.027 8.105 3.002 8.105 7.777s-3.74 8.077-8.105 8.077ZM83.465 47.163c-.109 2.62-.3 5.267-.355 7.913-.081 3.412-1.719 5.513-5.402 5.513-4.067 0-6.25-1.091-6.304-5.185-.054-2.728-.054-5.43-.136-8.16-.027-.818-.137-1.472-.71-2.1 1.61.055 2.838.055 4.448 0-.574.627-.654 1.282-.682 2.1-.11 2.784-.11 5.295-.082 8.078.027 2.975.929 4.339 3.548 4.366 3.384.056 3.956-2.537 3.956-5.348a78.38 78.38 0 0 0-.354-7.176c-.055-.682-.3-1.555-.819-2.02 1.173.056 2.348.056 3.575 0-.546.492-.655 1.31-.682 2.02M89.008 60.097c.6-.436.736-1.01.764-1.692.137-1.937.137-3.93.137-5.893 0-1.747 0-3.549-.137-5.322-.055-.792-.136-1.447-.71-2.046 2.02.054 2.484.054 4.64 0-.574.627-.655 1.31-.71 2.1-.164 1.719-.164 3.494-.164 5.212 0 1.966 0 3.985.19 5.95.083.681.247 1.255.793 1.691a142.42 142.42 0 0 0-4.803 0M112.012 46.89c-.273 3.166-.328 9.36-.246 13.207a41.418 41.418 0 0 0-2.592 0c-.874-2.646-2.866-4.366-4.694-6.358-1.502-1.636-2.62-3.028-3.576-5.048.029 3.193.11 6.467.465 9.633.082.546.409 1.364.764 1.773a69.498 69.498 0 0 0-3.356 0c.41-.382.736-1.227.791-1.773.245-3.302.3-7.75.19-11.08-.026-.927-.19-1.364-.872-2.1 1.501.054 2.456.054 3.657 0 .764 1.773 1.719 3.411 2.948 4.912 1.691 1.992 3.765 3.411 5.129 5.73-.054-2.974-.246-5.922-.519-8.896-.027-.573-.299-1.31-.737-1.746 1.529.054 1.911.054 3.33 0-.409.409-.655 1.173-.682 1.746M30.192 81.74c.437-.274.655-1.065.655-1.856-.081-2.92 0-6.822-.137-9.687-2.045 3.083-4.447 8.431-5.539 11.951h-.11c-.436-4.53-5.457-9.168-5.839-11.842-.137 3.193.136 6.44.3 9.633.028.572.302 1.419.71 1.8a65.124 65.124 0 0 0-3.248 0c.41-.382.684-1.255.738-1.8.355-3.493.326-7.805.355-11.052 0-.928-.192-1.5-.82-2.1 1.365.054 2.838.054 3.958 0 .546 3.737 3.847 5.948 5.02 9.85 1.31-3.384 2.62-6.686 4.42-9.85 1.365.054 2.102.054 3.876 0-.6.49-.764 1.336-.764 2.073 0 3.683-.027 7.394.217 11.079.029.682.22 1.364.764 1.8a128.155 128.155 0 0 0-4.556 0M47.386 67.058c-3.056 0-4.83 2.429-4.83 7.04 0 4.612 1.692 7.287 4.83 7.287 2.948 0 4.83-2.675 4.83-7.287 0-4.611-1.774-7.04-4.83-7.04m0 15.118c-4.53 0-8.105-3.301-8.105-8.078 0-4.776 3.275-7.777 8.105-7.777 4.72.027 8.104 3.002 8.104 7.777s-3.739 8.078-8.104 8.078ZM67.938 67.058c-3.056 0-4.83 2.429-4.83 7.04 0 4.612 1.692 7.287 4.83 7.287 2.948 0 4.83-2.675 4.83-7.287 0-4.611-1.774-7.04-4.83-7.04m0 15.118c-4.53 0-8.104-3.301-8.104-8.078 0-4.776 3.273-7.777 8.104-7.777 4.72.027 8.104 3.002 8.104 7.777s-3.739 8.078-8.104 8.078ZM93.89 68.532c-.272 3.165-.327 9.36-.245 13.207-.655-.027-1.801-.027-2.593 0-.873-2.646-2.865-4.366-4.693-6.358-1.502-1.637-2.62-3.028-3.576-5.048.029 3.193.11 6.467.465 9.632.081.546.41 1.365.764 1.774a69.502 69.502 0 0 0-3.356 0c.41-.382.736-1.228.791-1.774.245-3.301.3-7.75.19-11.079-.026-.928-.19-1.364-.872-2.1 1.5.054 2.456.054 3.656 0 .764 1.773 1.72 3.41 2.948 4.911 1.692 1.993 3.766 3.412 5.13 5.73-.054-2.973-.246-5.921-.52-8.895-.026-.574-.299-1.31-.736-1.747 1.53.055 1.911.055 3.33 0-.41.41-.655 1.173-.682 1.747M45.996 92.319c-.435.21-1.28.197-1.518.105 0 .831.013 1.689.106 2.507.04.344.12.634.409.858-.832-.066-1.663-.04-2.467 0 .276-.224.356-.514.382-.858.066-.924.066-1.86.066-2.797-.686-.186-1.386-.37-2.099-.37-.369 0-1.094.027-1.36.344-.012.937 0 1.886.093 2.823.04.344.132.635.41.859a21.504 21.504 0 0 0-2.456 0c.278-.224.37-.515.397-.859.066-1.016.066-2.031.066-3.034 0-.911 0-1.835-.08-2.746-.025-.409-.066-.739-.355-1.055.778.04 1.57.052 2.362 0-.29.316-.33.673-.357 1.082-.08.832-.105 1.663-.08 2.507.45-.422 1.15-.462 1.743-.462.593 0 1.148.092 1.716.185 0-.752 0-1.504-.067-2.257-.039-.409-.065-.739-.368-1.055 1.16.04 1.451.052 2.388 0-.29.316-.33.673-.37 1.082-.066.779-.08 1.57-.08 2.362 1.017.08 2.113-.053 3.195-.804l.027.039c-.317.343-1.32 1.372-1.704 1.544M52.843 88.689c-1.479 0-2.336 1.175-2.336 3.405 0 2.23.819 3.523 2.336 3.523 1.426 0 2.336-1.293 2.336-3.523 0-2.23-.858-3.405-2.336-3.405Zm0 7.311c-2.19 0-3.92-1.596-3.92-3.906s1.584-3.761 3.92-3.761c2.283.013 3.92 1.451 3.92 3.76 0 2.31-1.809 3.907-3.92 3.907ZM64.611 90.247c-.303-.713-.896-1.294-1.716-1.294-.105 0-.197.014-.289.027-.278.065-.264.382-.264.606-.053.805-.053 1.677-.053 2.508 0 .963-.014 1.94.093 2.89.026.317.106.594.382.806a62.587 62.587 0 0 0-2.31 0c.277-.212.33-.489.357-.806.066-1.003.053-1.886.053-2.89 0-.779-.013-1.346-.053-2.508 0-.224.014-.541-.264-.606-.092-.013-.185-.027-.29-.027-.819 0-1.413.58-1.716 1.294h-.053c.026-.555.093-1.122.158-1.69 2.007.027 3.986.027 5.86 0 .08.555.132 1.135.159 1.69h-.053ZM71.564 95.79c-2.401-.013-1.16-.013-4.882 0 .276-.212.355-.489.368-.819.067-.937.067-1.9.067-2.837 0-.858 0-1.73-.067-2.573-.026-.397-.065-.713-.343-1.004 1.597.026 3.194.026 4.79 0 .053.435.093.91.146 1.425h-.066c-.541-.805-1.769-1.042-2.613-.99-.303.026-.344.317-.37.581-.052.713-.052 1.439-.052 2.152.408-.239 1.16-.304 1.635-.304.423 0 .832.052 1.215.224.092.356.172.726.251 1.082h-.066c-.356-.554-1.32-.752-1.94-.752-.277 0-.871.053-1.095.21 0 .899 0 1.822.065 2.72.013.184.053.395.252.421 1.333.173 2.507-.237 3.18-1.2h.053a11.04 11.04 0 0 1-.528 1.663M78.886 95.79c-1.57-.013-3.154-.013-4.738 0 .264-.212.358-.489.37-.819a55.21 55.21 0 0 0 0-5.397c-.013-.396-.066-.713-.344-1.017.752.027 1.557.027 2.244 0-.29.304-.33.62-.344 1.017-.052.87-.078 1.728-.078 2.6 0 .936.04 1.873.093 2.797.013.132 0 .211.08.29.157.159.448.132.54.132 1.108 0 2.072-.448 2.653-1.266h.052c-.118.54-.33 1.174-.528 1.663"/></g><defs><clipPath id="a"><path fill="#fff" d="M0 0h118.447v96H0z"/></clipPath></defs></svg>