<svg width="21" height="18" fill="none" xmlns="http://www.w3.org/2000/svg"><path d="m19.786 11.906-5.414-6.429a1.447 1.447 0 0 0-.465-.281 1.567 1.567 0 0 0-1.099 0c-.174.065-.332.16-.465.281L1.215 17.357h18.571" stroke="#1A3A37" stroke-width="1.2" stroke-linecap="round" stroke-linejoin="round"/><path d="m7.201 10.929 2.1 1.285c.242.155.532.239.829.239.297 0 .586-.084.828-.239l1.272-.861c.247-.167.548-.257.857-.257.309 0 .61.09.857.257l1.271.861c.241.152.528.234.822.234.294 0 .58-.082.821-.234l2.115-1.285M4.786 7.071c1.973 0 3.572-1.439 3.572-3.214S6.758.643 4.786.643 1.215 2.082 1.215 3.857s1.599 3.214 3.571 3.214Z" stroke="#1A3A37" stroke-width="1.2" stroke-linecap="round" stroke-linejoin="round"/></svg>