<svg width="22" height="22" fill="none" xmlns="http://www.w3.org/2000/svg"><path d="M21.214 21.183h-.786a3.143 3.143 0 0 1-3.143-3.143 3.143 3.143 0 0 1-6.286 0 3.143 3.143 0 1 1-6.285 0 3.143 3.143 0 0 1-3.143 3.143H.785m14.929-6.286a8.627 8.627 0 0 0-13.326 0" stroke="#000" stroke-width="1.5" stroke-linecap="round" stroke-linejoin="round"/><path d="M10.214 11.833c.094-3.552 1.178-6.789 3.535-7.952M9.051.896a4.054 4.054 0 0 1 4.714 2.985" stroke="#000" stroke-width="1.5" stroke-linecap="round" stroke-linejoin="round"/><path d="M19.501 4.463a4.368 4.368 0 0 0-5.751-.581" stroke="#000" stroke-width="1.5" stroke-linecap="round" stroke-linejoin="round"/><path d="M7.982 5.563A4.714 4.714 0 0 1 13.75 3.88a4.007 4.007 0 0 1 2.97 4.715" stroke="#000" stroke-width="1.5" stroke-linecap="round" stroke-linejoin="round"/></svg>