<svg width="19" height="18" fill="none" xmlns="http://www.w3.org/2000/svg"><path d="M5.97 10.71a.53.53 0 0 0 .53-.529V8.825h6v1.525a.53.53 0 0 0 1.059 0V.53a.53.53 0 0 0-1.059 0v1.589h-6V.529a.53.53 0 0 0-1.059 0v9.652a.53.53 0 0 0 .53.53Zm.53-2.945V6h6v1.765h-6Zm6-4.589v1.765h-6V3.176h6ZM.5 12.53A.53.53 0 0 1 1.03 12c1.219 0 1.852.423 2.41.794.498.331.926.618 1.825.618.899 0 1.323-.286 1.824-.618.558-.372 1.192-.794 2.41-.794 1.219 0 1.853.423 2.412.794.496.331.925.618 1.824.618.9 0 1.324-.286 1.824-.618.559-.372 1.192-.794 2.412-.794a.53.53 0 1 1 0 1.059c-.899 0-1.324.286-1.824.618-.56.372-1.193.794-2.412.794-1.218 0-1.853-.423-2.411-.794-.497-.331-.926-.618-1.825-.618-.899 0-1.323.286-1.824.618-.558.372-1.192.794-2.41.794-1.219 0-1.853-.423-2.412-.794-.5-.332-.925-.618-1.824-.618a.53.53 0 0 1-.529-.53Zm18 3.53a.53.53 0 0 1-.53.53c-.898 0-1.323.285-1.823.617-.56.372-1.193.794-2.412.794-1.218 0-1.853-.423-2.411-.794-.497-.331-.926-.618-1.825-.618-.899 0-1.323.286-1.824.618-.558.372-1.192.794-2.41.794-1.219 0-1.853-.423-2.412-.794-.5-.332-.925-.618-1.824-.618a.53.53 0 1 1 0-1.059c1.22 0 1.853.423 2.412.794.497.331.925.618 1.824.618s1.323-.286 1.824-.617c.558-.373 1.192-.795 2.41-.795 1.219 0 1.853.423 2.412.794.496.331.925.618 1.824.618.9 0 1.324-.286 1.824-.617.559-.373 1.192-.795 2.412-.795a.53.53 0 0 1 .529.53Z" fill="#1A3A37"/></svg>