<svg width="19" height="18" fill="none" xmlns="http://www.w3.org/2000/svg"><path d="M2.188 1.688h14.624l-.562-.563v15.75l.563-.563H2.188l.562.563V1.125l-.563.563Zm0-1.125a.563.563 0 0 0-.563.562v15.75c0 .31.252.563.563.563h14.624a.562.562 0 0 0 .563-.563V1.125a.563.563 0 0 0-.563-.563H2.188ZM1.062 1.688h16.875a.562.562 0 1 0 0-1.125H1.063a.563.563 0 0 0 0 1.125Zm0 15.75h16.875a.562.562 0 1 0 0-1.125H1.063a.563.563 0 0 0 0 1.125ZM14 11.25v2.654a.158.158 0 0 1-.158.159H5.158A.158.158 0 0 1 5 13.903V8.596c0-.088.07-.159.158-.159h8.684c.087 0 .158.072.158.159v2.654Zm1.125 0V8.596a1.282 1.282 0 0 0-1.283-1.284H5.158c-.709 0-1.283.575-1.283 1.284v5.308c0 .709.574 1.284 1.283 1.284h8.684a1.281 1.281 0 0 0 1.283-1.284V11.25Zm-7.875-.563h4.5a.562.562 0 1 0 0-1.124h-4.5a.563.563 0 1 0 0 1.124Zm-2.813-7.03a.281.281 0 1 1 0-.563.281.281 0 0 1 0 .562.563.563 0 1 0 0-1.125.844.844 0 1 0 0 1.688.844.844 0 0 0 0-1.688.563.563 0 1 0 0 1.125Zm2.25 0a.281.281 0 1 1 0-.563.281.281 0 0 1 0 .562.563.563 0 1 0 0-1.125.844.844 0 1 0 0 1.688.844.844 0 0 0 0-1.688.563.563 0 1 0 0 1.125Zm-4.5 2.53h14.626a.562.562 0 1 0 0-1.125H2.188a.563.563 0 1 0 0 1.125Zm8.438-2.25h3.938a.562.562 0 1 0 0-1.124h-3.938a.562.562 0 1 0 0 1.124Z" fill="#000"/></svg>