<svg width="20" height="20" fill="none" xmlns="http://www.w3.org/2000/svg"><path d="M16.408 1.34a6.048 6.048 0 0 0-8.261 2.213l-.228.395a.59.59 0 0 0 .216.804l4.29 2.478-2.567 4.494-.054-.001c-2.48 0-4.63 1.44-5.91 3.474a1.566 1.566 0 0 1 1.334.136c1.11-1.466 2.765-2.431 4.576-2.431 1.89 0 3.608 1.049 4.715 2.62a1.57 1.57 0 0 1 1.139-.412c-1.046-1.617-2.646-2.845-4.523-3.246l2.311-4.045 4.143 2.392a.588.588 0 0 0 .806-.216l.227-.393a6.05 6.05 0 0 0-2.214-8.262Zm-1.72 5.835L12.206 5.74c.45-.692.877-1.219 1.39-1.685.498-.454 1.094-.864 1.902-1.31.12.75.155 1.374.078 1.987-.09.733-.35 1.488-.89 2.44l.002.002Zm1.02.589c.597-1.051.923-1.957 1.039-2.884a7.466 7.466 0 0 0-.017-1.842 4.872 4.872 0 0 1 .937 5.856l-1.96-1.131Zm-2.905-4.58c-.62.566-1.12 1.194-1.618 1.968L9.236 4.027a4.871 4.871 0 0 1 5.412-2.153c-.73.42-1.324.837-1.845 1.31Zm-7.825 13.31a.59.59 0 0 0-1.132.045c-.2.818-.58 1.268-1.012 1.529-.452.273-1.029.378-1.672.378a.59.59 0 0 0 0 1.179c.751 0 1.571-.12 2.281-.549a3.134 3.134 0 0 0 1.043-1.028c1.406 1.793 4.15 1.784 5.515-.019 1.387 1.83 4.196 1.812 5.58-.067a4.077 4.077 0 0 0 3.26 1.663.59.59 0 0 0 0-1.179c-1.16 0-2.315-.754-2.696-1.947a.59.59 0 0 0-1.121-.006c-.757 2.286-3.723 2.257-4.466.095a.59.59 0 0 0-1.114 0c-.744 2.162-3.709 2.19-4.466-.095Z" fill="#000"/></svg>