<svg width="21" height="18" fill="none" xmlns="http://www.w3.org/2000/svg"><path d="M1.066 17.963c.77.086 1.55.016 2.286-.205a5.342 5.342 0 0 0 1.966-1.07l-.896-.028c.413.412.918.741 1.481.967a4.826 4.826 0 0 0 1.79.341c.616 0 1.226-.116 1.79-.341a4.42 4.42 0 0 0 1.48-.967l-.463-.376-.463.376a4.42 4.42 0 0 0 1.48.967 4.826 4.826 0 0 0 1.79.341c.617 0 1.226-.116 1.79-.341a4.418 4.418 0 0 0 1.48-.967l-.462-.376-.433.404c.559.484 1.23.85 1.966 1.07.736.221 1.517.291 2.286.206a.675.675 0 0 0 .238-.065.613.613 0 0 0 .19-.143.543.543 0 0 0 .114-.198.509.509 0 0 0-.06-.434.587.587 0 0 0-.164-.167.69.69 0 0 0-.471-.107 4.38 4.38 0 0 1-1.739-.156 4.063 4.063 0 0 1-1.495-.815.636.636 0 0 0-.21-.12.687.687 0 0 0-.486.015.623.623 0 0 0-.2.133 3.169 3.169 0 0 1-1.061.693 3.46 3.46 0 0 1-1.283.245 3.46 3.46 0 0 1-1.283-.245 3.169 3.169 0 0 1-1.061-.693.625.625 0 0 0-.21-.137.685.685 0 0 0-.507 0 .626.626 0 0 0-.21.137 3.169 3.169 0 0 1-1.061.693 3.46 3.46 0 0 1-1.283.245A3.46 3.46 0 0 1 6.41 16.6a3.169 3.169 0 0 1-1.062-.693.622.622 0 0 0-.2-.132.68.68 0 0 0-.695.104 4.064 4.064 0 0 1-1.495.815 4.38 4.38 0 0 1-1.74.156.69.69 0 0 0-.47.107.587.587 0 0 0-.165.167.524.524 0 0 0-.06.434c.024.072.062.14.115.198a.613.613 0 0 0 .19.143.675.675 0 0 0 .238.064Zm0-3.368c.77.085 1.55.015 2.286-.205a5.344 5.344 0 0 0 1.966-1.07l-.896-.029c.413.412.918.742 1.481.967a4.826 4.826 0 0 0 1.79.342c.616 0 1.226-.117 1.79-.342a4.418 4.418 0 0 0 1.48-.967l-.463-.376-.463.376c.413.412.917.742 1.48.967a4.826 4.826 0 0 0 1.79.342c.617 0 1.226-.117 1.79-.342a4.417 4.417 0 0 0 1.48-.967l-.462-.376-.433.404c.559.484 1.23.85 1.966 1.07.736.221 1.517.291 2.286.206a.675.675 0 0 0 .238-.065.615.615 0 0 0 .19-.142.544.544 0 0 0 .114-.199.509.509 0 0 0-.06-.434.584.584 0 0 0-.164-.167.692.692 0 0 0-.471-.107 4.378 4.378 0 0 1-1.739-.156 4.063 4.063 0 0 1-1.495-.814.636.636 0 0 0-.21-.12.685.685 0 0 0-.486.015.624.624 0 0 0-.2.132 3.169 3.169 0 0 1-1.061.693 3.46 3.46 0 0 1-1.283.245 3.46 3.46 0 0 1-1.283-.245 3.169 3.169 0 0 1-1.061-.693.625.625 0 0 0-.21-.136.683.683 0 0 0-.507 0 .626.626 0 0 0-.21.136 3.169 3.169 0 0 1-1.061.693 3.46 3.46 0 0 1-1.283.245 3.46 3.46 0 0 1-1.282-.245 3.169 3.169 0 0 1-1.062-.693.624.624 0 0 0-.2-.132.68.68 0 0 0-.695.105 4.064 4.064 0 0 1-1.495.814 4.377 4.377 0 0 1-1.74.156.692.692 0 0 0-.47.107.585.585 0 0 0-.165.167.524.524 0 0 0-.06.434c.024.073.062.14.115.199a.615.615 0 0 0 .19.142.675.675 0 0 0 .238.065Zm0-3.369c.77.086 1.55.016 2.286-.205a5.342 5.342 0 0 0 1.966-1.07l-.896-.028a4.42 4.42 0 0 0 1.481.966 4.828 4.828 0 0 0 1.79.342c.616 0 1.226-.117 1.79-.342a4.42 4.42 0 0 0 1.48-.966l-.463-.377-.463.377a4.42 4.42 0 0 0 1.48.966 4.828 4.828 0 0 0 1.79.342c.617 0 1.226-.117 1.79-.342a4.419 4.419 0 0 0 1.48-.966l-.462-.377-.433.404c.559.485 1.23.85 1.966 1.07.736.222 1.517.292 2.286.206a.676.676 0 0 0 .238-.065.613.613 0 0 0 .19-.142.544.544 0 0 0 .114-.199.509.509 0 0 0-.06-.434.584.584 0 0 0-.164-.167.692.692 0 0 0-.471-.107 4.378 4.378 0 0 1-1.739-.156 4.062 4.062 0 0 1-1.495-.814.637.637 0 0 0-.21-.12.686.686 0 0 0-.486.015.624.624 0 0 0-.2.133 3.167 3.167 0 0 1-1.061.692 3.46 3.46 0 0 1-1.283.245 3.46 3.46 0 0 1-1.283-.245 3.167 3.167 0 0 1-1.061-.692.625.625 0 0 0-.21-.137.683.683 0 0 0-.507 0 .626.626 0 0 0-.21.137 3.167 3.167 0 0 1-1.061.692c-.404.162-.84.245-1.283.245-.442 0-.879-.083-1.282-.245a3.167 3.167 0 0 1-1.062-.692.624.624 0 0 0-.2-.133.681.681 0 0 0-.695.105 4.063 4.063 0 0 1-1.495.814 4.378 4.378 0 0 1-1.74.156.692.692 0 0 0-.47.107.585.585 0 0 0-.165.167.525.525 0 0 0-.06.434c.024.073.062.14.115.199a.613.613 0 0 0 .19.142.676.676 0 0 0 .238.065ZM4.386.9 5.76 2.547c.116.139.267.252.44.33a1.362 1.362 0 0 0 1.116 0c.173-.078.324-.191.44-.33L9.128.9a.507.507 0 0 0 .038-.623.587.587 0 0 0-.163-.163A.691.691 0 0 0 8.31.08a.607.607 0 0 0-.182.146L6.757 1.873 5.384.226a.64.64 0 0 0-.41-.22.677.677 0 0 0-.463.108.554.554 0 0 0-.243.37.52.52 0 0 0 .118.416Zm5.615 3.368 1.372 1.647c.117.14.267.253.44.33a1.362 1.362 0 0 0 1.117 0c.173-.077.324-.19.44-.33l1.372-1.647a.509.509 0 0 0 .038-.623.588.588 0 0 0-.163-.163.691.691 0 0 0-.692-.034.607.607 0 0 0-.181.147l-1.373 1.647L11 3.595a.608.608 0 0 0-.181-.147.67.67 0 0 0-.473-.06.655.655 0 0 0-.22.094.587.587 0 0 0-.162.163.526.526 0 0 0-.067.426.54.54 0 0 0 .105.197ZM15.616.9l1.372 1.647c.116.139.267.252.44.33a1.362 1.362 0 0 0 1.116 0c.173-.078.324-.191.44-.33L20.357.9a.54.54 0 0 0 .105-.198.506.506 0 0 0-.067-.425.587.587 0 0 0-.163-.163.691.691 0 0 0-.692-.034.608.608 0 0 0-.181.146l-1.373 1.647L16.614.226a.607.607 0 0 0-.181-.146.671.671 0 0 0-.473-.061.655.655 0 0 0-.22.095.588.588 0 0 0-.162.163.509.509 0 0 0 .038.623Z" fill="#1A3A37"/></svg>