<svg width="369" height="32" fill="none" xmlns="http://www.w3.org/2000/svg"><g clip-path="url(#a)"><path d="M7.476-1.337a.983.983 0 0 1 .332.672.954.954 0 0 1-.332.663L6.814.67l-.672.664-1.996 1.999-.663.671-.67.664L.815 6.666l-.663.672L-.518 8l-1.997 1.998-.662.672-.672.663-1.996 1.998a.956.956 0 0 0-.331.672c0 .219.161.384.501.494.377.119.77.176 1.165.17h6.66a3.66 3.66 0 0 1 1.166.17c.331.11.502.273.502.493a.965.965 0 0 1-.332.672l-.671.663-.663.672-.67.663-.663.663-.663.672-.671.663-.663.672-.671.663-.663.663-.662.672-.672.663-.662.672-.672.663-.662.663a.982.982 0 0 0-.331.672c0 .219.161.39.501.503l.994.331c.331.11.502.273.502.501a.957.957 0 0 1-.332.664l-.67.663-.663.672-.663.663a.98.98 0 0 1-.671.331v-6.666a.331.331 0 1 0 0-.663v-1.999a.988.988 0 0 0 .671-.331l.663-.672 1.996-1.998.671-.663a.99.99 0 0 0 .332-.672c0-.219-.17-.39-.501-.502a3.719 3.719 0 0 0-1.165-.162H-7.18v-4.336a.98.98 0 0 0 .671-.332l.663-.663.662-.672.672-.663.662-.672.672-.663.662-.663.663-.672.671-.663.663-.672.671-.663.663-.664.662-.671.672-.664.662-.672.671-.663.663-.664.663-.672a.94.94 0 0 0 .34-.663.97.97 0 0 0-.34-.672L-6.508-12.664a.967.967 0 0 0-.672-.34v-4.33h2.668c.395.007.788-.05 1.165-.17.331-.11.501-.272.501-.5a.965.965 0 0 0-.331-.664l-.672-.663-.662-.672-.672-.663-.662-.672-.663-.663a.98.98 0 0 0-.671-.331v-2a.335.335 0 0 0 0-.671v-6.667c.259.018.5.137.671.332l.663.672 1.334 1.335a.95.95 0 0 1 .331.663c0 .218-.17.39-.502.502l-.993.332c-.34.11-.502.28-.502.5a.953.953 0 0 0 .331.664l.663.672.671.663 1.997 1.998.662.672.671.663 1.997 1.999.662.672.672.663 1.334 1.335a.959.959 0 0 1 .331.663c0 .219-.17.391-.502.501-.377.119-.77.176-1.165.17h-6.66a3.713 3.713 0 0 0-1.165.162c-.34.111-.502.28-.502.501a.948.948 0 0 0 .331.663l.663.672.671.663.663.672.671.664.663.663.662.672.672.663.662.672.671.663.663.663.663.672.67.663.663.672.672.663.662.663.663.672.671.663.663.672.671.663.666.666ZM-.85-18.005a.332.332 0 0 0 .566.235.332.332 0 0 0-.234-.566.294.294 0 0 0-.332.331Zm-1.333-1.326a.336.336 0 1 0 .672 0 .336.336 0 0 0-.672 0Zm-3.33-4.009a.332.332 0 1 0-.332.332.29.29 0 0 0 .331-.325v-.007Zm1.333 1.335a.332.332 0 1 0-.331.332.29.29 0 0 0 .331-.328v-.004Zm1.334 1.335a.336.336 0 1 0-.331.332.291.291 0 0 0 .331-.328v-.003Zm-2.668 42.664a.332.332 0 1 0-.331.34.29.29 0 0 0 .331-.339Zm1.334-1.327A.332.332 0 1 0-4.51 21a.296.296 0 0 0 .331-.327v-.005Zm1.334-1.335a.336.336 0 1 0-.331.332.29.29 0 0 0 .318-.195.292.292 0 0 0 .013-.133v-.004Zm1.996-2.67a.332.332 0 1 0 .332-.332.292.292 0 0 0-.332.336v-.004Zm-1.333 1.335a.336.336 0 1 0 .33-.331.292.292 0 0 0-.33.335v-.004ZM88.41-24.671a.296.296 0 0 0 .332.34v1.998a.98.98 0 0 0-.672.332l-.662.663-.663.672-.671.663-.663.672-.671.663a.962.962 0 0 0-.331.663c0 .228.17.392.5.502.377.119.77.176 1.165.17h2.668v4.328a.966.966 0 0 0-.671.34L76.756-1.336a.97.97 0 0 0-.34.672.94.94 0 0 0 .34.663l.663.672.663.664.671.663.663.672.671.664.663.672.662.663.672.663.662.672.672.663.662.672.663.663.671.664.663.671.671.664.663.671.662.664a.98.98 0 0 0 .671.331v4.337h-2.668a3.72 3.72 0 0 0-1.165.162c-.331.111-.501.28-.501.501a.99.99 0 0 0 .331.672l.672.663L87.409 20l.663.672a.988.988 0 0 0 .671.332V23a.331.331 0 0 0 0 .663v6.667a.98.98 0 0 1-.671-.332l-.663-.663-.663-.672-.67-.663a.958.958 0 0 1-.332-.663c0-.229.17-.392.502-.502l.993-.331c.34-.111.501-.28.501-.502a.983.983 0 0 0-.33-.672l-.663-.663-.672-.663-.662-.672-.672-.663-.662-.672-.663-.664-.671-.663-.663-.671-.671-.664-.663-.672-.662-.663-.671-.663-.663-.672-.671-.663a.965.965 0 0 1-.332-.672c0-.218.17-.383.502-.493.377-.12.77-.177 1.165-.17h6.66c.396.007.789-.05 1.166-.17.339-.11.5-.273.5-.493a.96.96 0 0 0-.33-.672l-1.997-1.998-.672-.664-.662-.671L82.084 8l-.67-.663-.663-.672-1.997-1.998-.671-.663-.663-.672-1.997-1.998-.671-.664-.663-.672a.953.953 0 0 1-.331-.663.983.983 0 0 1 .331-.672L74.752-2l.671-.663.663-.672.67-.663.663-.672.664-.663.671-.664.663-.672.671-.663.663-.672.662-.663.671-.663.663-.672.671-.663.663-.672.662-.663.672-.663.662-.672.672-.663.662-.672a.948.948 0 0 0 .332-.663c0-.219-.162-.39-.501-.502a3.707 3.707 0 0 0-1.165-.162h-6.661a3.713 3.713 0 0 1-1.165-.17c-.331-.11-.502-.28-.502-.5a.964.964 0 0 1 .332-.664l1.334-1.335.67-.663.663-.672 1.997-1.998.671-.663.663-.672 1.996-1.998.671-.664.663-.672a.954.954 0 0 0 .331-.663c0-.218-.161-.392-.5-.501l-.994-.332c-.332-.111-.502-.28-.502-.502a.953.953 0 0 1 .331-.663l1.334-1.335.663-.672a.987.987 0 0 1 .671-.331V-25a.292.292 0 0 0-.333.329Zm-5.998 6.667a.332.332 0 0 0-.401-.315.33.33 0 0 0-.113.6.332.332 0 0 0 .183.055.291.291 0 0 0 .331-.34Zm1.334-1.327a.336.336 0 1 0-.331.332.296.296 0 0 0 .331-.332Zm-1.334 36a.332.332 0 1 0-.331.332.291.291 0 0 0 .331-.335v.003Zm1.334 1.335a.336.336 0 1 0-.331.332.291.291 0 0 0 .331-.335v.003Zm3.33 3.997a.332.332 0 1 0 .332-.331.295.295 0 0 0-.332.325V22Zm-1.333-1.327a.331.331 0 1 0 .33-.34.29.29 0 0 0-.33.337v.003Zm-1.334-1.335a.336.336 0 1 0 .33-.331.292.292 0 0 0-.33.328v.003Zm.67-40.002a.337.337 0 0 0-.396-.335.335.335 0 0 0 .057.666.296.296 0 0 0 .34-.334v.003Zm1.327-1.335a.332.332 0 1 0-.332.331.291.291 0 0 0 .332-.334v.003Zm1.334-1.335a.332.332 0 1 0-.332.331.29.29 0 0 0 .32-.197.293.293 0 0 0 .01-.134h.002Z" fill="#BF2C2F"/><path d="m55.437-5.334 1.996 1.998.663.672.671.663.663.663c.229.236.4.521.502.834.11.326.11.678 0 1.004-.1.313-.272.599-.502.833l-1.997 1.998-.662.672-.672.664-1.997 1.998-.662.672-.672.663-1.996 1.998-.663.672-.67.663-1.997 1.998-.663.672-.671.663-1.997 2-.662.671-.672.663-1.334 1.335c-.189.19-.414.338-.662.438-.055.022-.11.044-.17.063-.322.11-.672.11-.994 0a2.116 2.116 0 0 1-.833-.501l-17.984-18A2.12 2.12 0 0 1 20.3.5a1.566 1.566 0 0 1 0-1.003c.101-.313.272-.598.5-.834L21.463-2l.671-.663.663-.672.671-.664.663-.671.662-.664.672-.663.662-.672.671-.663.663-.672.663-.663.67-.663.663-.672.672-.663.663-.672.663-.663.67-.663.663-.672.672-.663.663-.672.663-.663.671-.664.663-.672.67-.663.663-.672.663-.663.671-.663a2.02 2.02 0 0 1 .833-.501c.322-.112.672-.112.994 0 .06.019.115.04.17.062.249.098.475.247.662.438l.672.663 1.996 1.998.663.672.671.663 1.996 1.998.663.672.671.663 1.997 1.999.663.671.67.664 1.997 1.998.664.672.668.663Zm.663 3.333-1.998-1.998-.662-.672-.672-.663-1.996-1.998-.663-.672-.67-.663-1.997-2-.663-.671-.671-.663L44.11-14l-.662-.671-.672-.664-1.334-1.335a1.993 1.993 0 0 0-.662-.437 2.241 2.241 0 0 0-.17-.063 1.539 1.539 0 0 0-.994 0c-.313.1-.598.272-.833.501L23.467-1.336c-.232.234-.403.52-.502.834a1.547 1.547 0 0 0 0 1.003c.097.315.27.6.502.834l.662.663.663.672.671.664.663.672.67.663.663.663.663.672.671.663.663.672.671.663.664.663.662.672.671.663.663.672.671.663.664.663.662.672.672.664.662.671.671.664.663.663.663.672.67.663c.235.23.52.402.833.501.322.11.672.11.995 0 .059-.019.115-.04.17-.063.247-.1.473-.248.662-.438l.671-.663.663-.672.671-.663.663-.663.662-.672.672-.663.662-.672.672-.663.662-.663.663-.672.67-.663.663-.672.672-.663.662-.663.663-.672.671-.663.663-.672.671-.664.663-.663.663-.672.671-.664.663-.671.671-.664c.227-.235.396-.52.493-.833a1.542 1.542 0 0 0 0-1.004 2.15 2.15 0 0 0-.493-.833l-.672-.666Z" fill="#ED5312"/><path d="M54.103-1.337c.229.236.4.521.502.834.11.325.11.678 0 1.003a2.12 2.12 0 0 1-.502.834l-12.661 12.67c-.19.187-.415.333-.663.43-.054.023-.11.044-.17.063a1.52 1.52 0 0 1-.994 0 2.099 2.099 0 0 1-.832-.493l-1.334-1.335-.663-.672-.671-.663-1.997-1.998-.663-.672L32.784 8l-1.997-1.999-.663-.672-.671-.663-1.997-1.999-.662-.672-.672-.663a2.113 2.113 0 0 1-.5-.833 1.568 1.568 0 0 1 0-1.004c.101-.312.272-.597.5-.834L26.794-2l.662-.663.663-.672.671-.663.663-.672.671-.663.663-.663.663-.672.671-.663.663-.672.671-.663.663-.664.663-.671.671-.664.663-.671.671-.664.663-.663.662-.672.672-.663c.234-.23.519-.402.832-.502.322-.11.672-.11.994 0 .06.019.116.04.17.063.248.1.474.249.663.438l.671.663.663.672.671.663.662.663.663.672.671.663.663.672.671.663.663.663.663.672.672.663.662.672.671.663.663.664.663.672.67.663.663.672.672.663.664.665Zm-2.166.834c-.098-.314-.27-.6-.5-.834L41.441-11.34a1.967 1.967 0 0 0-.663-.43 2.184 2.184 0 0 0-.17-.063 1.515 1.515 0 0 0-.994 0 2.098 2.098 0 0 0-.832.493l-1.334 1.335-.663.672-.671.663-1.997 1.999-.663.672-.671.663-1.997 1.998-.663.672-.671.663-.663.663c-.228.236-.4.521-.5.834-.11.325-.11.678 0 1.003.099.314.27.6.5.834l1.997 1.998.662.672.672.663 1.996 1.999.663.671.67.664 1.997 1.998.663.672.671.663c.235.23.52.401.833.501.322.11.672.11.994 0 .06-.02.115-.04.17-.063.248-.1.473-.249.662-.437l.672-.664.662-.671.672-.664.662-.671.663-.664.671-.663.663-.672.67-.663.663-.672.664-.663.671-.663.663-.672.67-.664.663-.672.663-.663c.232-.233.404-.52.501-.834.112-.324.113-.676.004-1Z" fill="#388CBA"/><path d="M2.149-.002a.953.953 0 0 0 .331-.663.983.983 0 0 0-.331-.672L1.477-2l-.662-.663-.663-.672-.671-.663-.663-.672-.67-.663-.663-.663-.663-.672-.671-.663-.663-.672-.671-.663-.663-.664-.662-.671a.98.98 0 0 0-.672-.332v2.67a.98.98 0 0 1 .672.332l.662.663.663.672.671.663 1.997 1.998.662.672.671.663.663.663a.983.983 0 0 1 .331.672.954.954 0 0 1-.331.663l-.663.672-.67.664-.663.663-.663.672-.671.664-.663.672-.671.663-.663.663-.662.672a.981.981 0 0 1-.672.332v2.67a.967.967 0 0 0 .672-.34L2.149-.002ZM87.407-9.33l-.663.663-.671.663-.663.672-.671.663-.663.672-.662.663-.671.663-.663.672-.671.663-.663.672-.663.663-.672.663a.983.983 0 0 0-.33.672.953.953 0 0 0 .33.663l8.658 8.666a.97.97 0 0 0 .671.34v-2.67a.982.982 0 0 1-.67-.331l-.663-.672-.663-.663-.671-.664-.663-.672-.671-.663-.663-.672-.662-.663-.671-.664-.663-.672a.952.952 0 0 1-.331-.663.983.983 0 0 1 .33-.672l.664-.663.67-.664.663-.672 1.997-1.998.671-.663.663-.672.662-.663a.98.98 0 0 1 .671-.332v-2.669a.982.982 0 0 0-.67.332l-.663.672ZM49.276-.503c.11.325.11.678 0 1.003-.1.313-.271.599-.5.834l-.672.663-.663.672-1.996 2-.671.662-.663.672-1.996 1.998-.672.664c-.187.19-.413.34-.662.437a2.21 2.21 0 0 1-.17.062 1.518 1.518 0 0 1-.994 0 2.021 2.021 0 0 1-.833-.5L38.114 8l-.663-.663-.663-.672-.671-.663-.663-.672-.671-.663-.664-.664-.662-.671-.672-.664-.662-.672-.671-.663a2.103 2.103 0 0 1-.493-.834 1.544 1.544 0 0 1 0-1.004c.099-.311.267-.597.493-.833l.671-.663L34.119-4l.664-.672.671-.663 1.996-1.998.663-.672.671-.663c.235-.23.52-.401.833-.501.322-.11.672-.11.994 0 .06.019.115.04.17.063.248.1.473.249.662.437l.672.663.662.672.672.664.662.671.663.664.671.663.663.672.67.663.663.672.663.663.672.663c.228.237.399.523.5.836Zm-2.667 0a2.142 2.142 0 0 0-.501-.834L45.445-2l-.671-.663-.663-.672-1.996-1.998-.672-.663a1.893 1.893 0 0 0-.662-.438 2.21 2.21 0 0 0-.17-.062 1.515 1.515 0 0 0-.994 0 2.02 2.02 0 0 0-.833.501l-.67.663-.663.663-.663.672-.671.663-.663.672-.671.664-.664.663c-.228.236-.399.521-.5.833-.11.326-.11.678 0 1.004.1.313.27.598.5.833l4.665 4.669c.234.23.52.401.832.501.322.11.672.11.995 0 .059-.02.114-.04.17-.063.247-.1.472-.249.662-.437l1.334-1.335.67-.664.663-.672 1.997-1.998c.23-.234.401-.52.5-.833.111-.326.112-.68.002-1.006Z" fill="#20C7AB"/><path d="M21.961 7.83c.331-.11.501-.273.501-.493a.96.96 0 0 0-.331-.672l-.672-.663-.662-.672-.663-.663-.671-.663-.663-.672-.671-.664-.663-.672-.662-.663A2.025 2.025 0 0 1 16.303.5a1.544 1.544 0 0 1 0-1.004c.098-.314.27-.6.5-.834l5.328-5.332a.954.954 0 0 0 .331-.663c0-.219-.17-.392-.501-.502a3.7 3.7 0 0 0-1.165-.17H10.142a3.763 3.763 0 0 0-1.173.17c-.33.11-.492.28-.492.502a.954.954 0 0 0 .33.663l.663.672.672.663.662.663.663.672.671.663.663.672.671.663.663.664c.228.236.399.521.5.833.11.326.11.678 0 1.004-.1.313-.271.598-.5.833L8.808 6.665a.958.958 0 0 0-.331.672c0 .218.161.383.492.493.38.119.775.176 1.173.17h10.654c.395.007.788-.05 1.165-.17ZM66.091-1.336l.671-.663.663-.663.663-.672.67-.663.663-.672.672-.663.662-.664.663-.671a.94.94 0 0 0 .34-.664c0-.218-.17-.392-.501-.502a3.71 3.71 0 0 0-1.165-.17H59.43a3.71 3.71 0 0 0-1.165.17c-.332.11-.501.28-.501.502a.96.96 0 0 0 .331.664l1.334 1.335.671.663.663.672L62.759-2l.672.663c.225.237.394.522.492.834.112.325.112.678 0 1.003a2.102 2.102 0 0 1-.492.834l-.672.663-.662.672-.672.664-.662.672-.663.663-.671.663-.663.672-.671.663a.965.965 0 0 0-.331.672c0 .219.17.383.5.493.377.12.77.177 1.166.17h10.662a3.66 3.66 0 0 0 1.165-.17c.331-.11.5-.273.5-.493a.947.947 0 0 0-.34-.672l-.662-.663-.662-.672-.672-.663-1.996-1.999-.663-.672-.671-.663a2.12 2.12 0 0 1-.5-.834 1.568 1.568 0 0 1 0-1.003c.1-.313.272-.598.5-.834Z" fill="#388CBA"/><path d="M45.275-.503c.111.325.111.678 0 1.004-.097.314-.27.6-.502.833l-.663.663-.662.672-.672.664-.662.672-.671.663c-.19.189-.415.338-.663.437-.055.023-.11.045-.17.064a1.54 1.54 0 0 1-.994 0 2.112 2.112 0 0 1-.833-.501l-.67-.664-.663-.672-1.997-1.998a2.098 2.098 0 0 1-.501-.833 1.568 1.568 0 0 1 0-1.004c.1-.313.272-.598.501-.834L36.116-2l.671-.663.663-.672 1.333-1.335c.236-.227.52-.396.833-.493.322-.112.672-.112.994 0 .06.019.115.04.17.062.248.098.473.244.663.431l3.33 3.333c.231.234.403.52.502.834Zm-2.66 0a2.17 2.17 0 0 0-.501-.834L41.443-2a1.995 1.995 0 0 0-.663-.437 2.21 2.21 0 0 0-.17-.063 1.539 1.539 0 0 0-.994 0c-.313.1-.598.271-.833.5l-.67.664a2.148 2.148 0 0 0-.494.834 1.546 1.546 0 0 0 0 1.003c.098.313.266.598.493.834l.671.663c.233.233.519.405.833.501.322.112.672.112.994 0 .06-.018.115-.04.17-.062.25-.097.475-.246.663-.437l.671-.664c.23-.235.401-.52.502-.833.11-.326.11-.68 0-1.006Z" fill="#FFA227"/><path d="M40.781-1.098a1.174 1.174 0 0 0-.17-.073 1.537 1.537 0 0 0-.994 0 1.008 1.008 0 0 0-.671.663 1.57 1.57 0 0 0 0 1.003 1.01 1.01 0 0 0 .67.664 1.516 1.516 0 0 0 1.165-.073.983.983 0 0 0 .502-.593c.11-.325.11-.678 0-1.003a.985.985 0 0 0-.502-.588Z" fill="#ED5312"/><path d="M87.238.169a1.516 1.516 0 0 0-.994 0c-.331.11-.502.273-.502.501a.958.958 0 0 0 .331.664l.672.663a.937.937 0 0 0 .662.34c.219 0 .39-.17.502-.5.11-.326.11-.679 0-1.004a.994.994 0 0 0-.671-.664Z" fill="#FFA227"/><path d="M29.956 15.832c.331-.11.5-.273.5-.501a.965.965 0 0 0-.33-.663l-.672-.663-.662-.672-.67-.664-.663-.671-.663-.663-.671-.664-.663-.672-.671-.663-.663-.672a.837.837 0 0 0-1.334 0l-.662.672-.672.663-.662.672-.663.664-.671.663-.663.671-.671.664-.662.672-.663.663a.944.944 0 0 0-.34.663c0 .228.17.391.502.501.376.12.77.177 1.165.17h10.662a3.66 3.66 0 0 0 1.162-.17ZM62.762 14.004l-.662-.672-.672-.663-.662-.672-.663-.663-.671-.663-.663-.672-.671-.663-.663-.672a.837.837 0 0 0-1.333 0l-.663.672-.671.663-.664.672-.662.663-.671.663-.663.672-.671.663-.663.672-.663.663a.947.947 0 0 0-.34.663c0 .229.17.392.501.502.377.119.77.176 1.165.17H62.1a3.66 3.66 0 0 0 1.165-.17c.331-.11.5-.274.5-.502a.965.965 0 0 0-.33-.663l-.673-.663Z" fill="#20C7AB"/><path d="M37.952 23.835c.33-.11.5-.28.5-.502a.94.94 0 0 0-.34-.663l-.662-.672-.664-.663-.67-.663-.663-.672-.672-.663-.662-.672-.663-.663-.671-.663-.663-.672a.837.837 0 0 0-1.334 0l-.662.672-.671.663L27.458 20l-.662.672-.672.663-1.334 1.335a.961.961 0 0 0-.331.663c0 .219.17.392.501.502.377.118.77.175 1.165.17h10.662c.395.005.788-.052 1.165-.17ZM49.438 16.666a.95.95 0 0 0-.663-.332.981.981 0 0 0-.671.332l-.663.672-.662.663-.672.663-.662.672-.671.663-.663.672-.663.663-.67.664-.663.671a.954.954 0 0 0-.332.664c0 .218.162.391.493.501.38.118.775.175 1.172.17h10.654c.395.006.788-.052 1.165-.17.331-.11.5-.28.5-.501a.954.954 0 0 0-.33-.663l-6-6.004Z" fill="#FFA227"/><path d="m46.78 30-.672-.663-.663-.672-.671-.663-.663-.663-.662-.672-.672-.663-.662-.672-.672-.663a1.992 1.992 0 0 0-.662-.438 2.298 2.298 0 0 0-.17-.063 1.539 1.539 0 0 0-.993 0c-.313.1-.598.272-.834.501l-.67.663-.663.672-1.997 1.998-.671.664-.663.672-1.334 1.335a.952.952 0 0 0-.33.663c0 .218.169.39.5.501.377.116.77.17 1.165.162h11.987c.395.008.788-.046 1.166-.162.339-.111.5-.28.5-.501a.947.947 0 0 0-.33-.663L46.778 30Z" fill="#388CBA"/><path d="M103.4-1.337a.98.98 0 0 1 .331.672.948.948 0 0 1-.331.663l-.662.672-.672.664-1.996 1.999-.663.671-.671.664-1.997 1.998-.662.672-.671.663-1.997 1.998-.663.672-.67.663-1.997 1.998a.958.958 0 0 0-.332.672c0 .219.162.384.502.494.377.119.77.176 1.165.17h6.66a3.66 3.66 0 0 1 1.166.17c.331.11.501.273.501.493a.965.965 0 0 1-.33.672l-.672.663-.663.672-.671.663-.663.663-.662.672-.672.663-.662.672-.671.663-.663.663-.663.672-.67.663-.663.672-.672.663-.662.663a.982.982 0 0 0-.332.672c0 .219.162.39.502.503l.994.331c.331.11.502.273.502.501a.957.957 0 0 1-.332.664l-.671.663-.663.672-.662.663a.98.98 0 0 1-.671.331v-6.666a.331.331 0 1 0 0-.663v-1.999a.989.989 0 0 0 .67-.331l.663-.672 1.997-1.998.671-.663a.991.991 0 0 0 .332-.672c0-.219-.17-.39-.501-.502a3.719 3.719 0 0 0-1.166-.162h-2.67v-4.336a.98.98 0 0 0 .671-.332l.663-.663.662-.672.672-.663.662-.672.671-.663.663-.663.663-.672.671-.663.663-.672.67-.663.663-.664.663-.671.671-.664.663-.672.671-.663.663-.664.662-.672a.947.947 0 0 0 .34-.663.959.959 0 0 0-.34-.672L89.415-12.664a.968.968 0 0 0-.67-.34v-4.33h2.667c.395.007.788-.05 1.165-.17.331-.11.5-.272.5-.5a.965.965 0 0 0-.33-.664l-.672-.663-.662-.672-.672-.663-.662-.672-.663-.663a.981.981 0 0 0-.671-.331v-2a.336.336 0 0 0 0-.671v-6.667c.258.018.5.137.671.332l.663.672 1.334 1.335a.95.95 0 0 1 .33.663c0 .218-.169.39-.5.502l-.995.332c-.339.11-.501.28-.501.5a.953.953 0 0 0 .331.664l.663.672.67.663 1.997 1.998.663.672.671.663 1.997 1.999.662.672.672.663 1.333 1.335a.96.96 0 0 1 .332.663c0 .219-.17.391-.502.501-.377.119-.77.176-1.165.17h-6.66a3.713 3.713 0 0 0-1.165.162c-.34.111-.502.28-.502.501a.948.948 0 0 0 .331.663l.663.672.671.663.662.672.672.664.663.663.662.672.671.663.663.672.671.663.663.663.662.672.672.663.662.672.672.663.662.663.663.672.671.663.663.672.671.663.666.666Zm-8.326-16.668a.332.332 0 0 0 .566.235.332.332 0 0 0-.234-.566.294.294 0 0 0-.332.331ZM93.74-19.33a.336.336 0 1 0 .673 0 .336.336 0 0 0-.673 0Zm-3.33-4.009a.332.332 0 1 0-.331.332.29.29 0 0 0 .331-.325v-.007Zm1.334 1.335a.332.332 0 1 0-.331.332.29.29 0 0 0 .33-.328v-.004Zm1.334 1.335a.336.336 0 1 0-.332.332.291.291 0 0 0 .332-.328v-.003ZM90.41 21.995a.331.331 0 1 0-.331.34.291.291 0 0 0 .331-.339Zm1.334-1.327a.332.332 0 1 0-.331.332.296.296 0 0 0 .316-.195c.015-.043.02-.088.015-.132v-.005Zm1.334-1.335a.336.336 0 1 0-.332.332.29.29 0 0 0 .319-.195.29.29 0 0 0 .013-.133v-.004Zm1.996-2.67a.332.332 0 1 0 .332-.332.291.291 0 0 0-.332.336v-.004Zm-1.334 1.335a.337.337 0 0 0 .4.334.336.336 0 0 0-.068-.665.292.292 0 0 0-.332.335v-.004ZM184.334-24.671a.3.3 0 0 0 .08.253.296.296 0 0 0 .251.087v1.998a.98.98 0 0 0-.671.332l-.663.663-.662.672-.671.663-.663.672-.671.663a.954.954 0 0 0-.332.663c0 .228.17.392.501.502.377.119.77.176 1.165.17h2.668v4.328a.964.964 0 0 0-.671.34L172.68-1.336a.958.958 0 0 0-.34.672.93.93 0 0 0 .34.663l.663.672.663.664.671.663.663.672.671.664.663.672.662.663.672.663.662.672.671.663.663.672.663.663.671.664.662.671.672.664.662.671.663.664a.978.978 0 0 0 .671.331v4.337H182a3.715 3.715 0 0 0-1.165.162c-.332.111-.501.28-.501.501a.99.99 0 0 0 .331.672l.671.663L183.333 20l.662.672a.99.99 0 0 0 .672.332V23a.33.33 0 0 0-.331.332.33.33 0 0 0 .331.332v6.666a.983.983 0 0 1-.672-.332l-.662-.663-.663-.672-.671-.663a.95.95 0 0 1-.331-.663c0-.229.169-.392.501-.502l.994-.331c.34-.111.501-.28.501-.502a.98.98 0 0 0-.331-.672l-.663-.663-.671-.663-.663-.672-.671-.663-.662-.672-.663-.664-.671-.663-.663-.671-.671-.664-.663-.672-.662-.663-.672-.663-.662-.672-.672-.663a.969.969 0 0 1-.331-.672c0-.218.17-.383.502-.493.376-.12.77-.177 1.165-.17H182c.395.007.789-.05 1.165-.17.34-.11.501-.273.501-.493a.952.952 0 0 0-.331-.672l-1.996-1.998-.672-.664-.662-.671L178.008 8l-.671-.663-.663-.672-1.996-1.998-.671-.663-.664-.672-1.996-1.998-.672-.664-.662-.672a.95.95 0 0 1-.331-.663.98.98 0 0 1 .331-.672l.662-.663.672-.663.662-.672.672-.663.662-.672.664-.663.671-.664.663-.672.671-.663.662-.672.663-.663.671-.663.663-.672.671-.663.663-.672.662-.663.672-.663.662-.672.672-.663.662-.672a.948.948 0 0 0 .331-.663c0-.219-.161-.39-.501-.502a3.704 3.704 0 0 0-1.165-.162h-6.66a3.714 3.714 0 0 1-1.165-.17c-.331-.11-.502-.28-.502-.5a.967.967 0 0 1 .331-.664l1.334-1.335.672-.663.662-.672 1.997-1.998.671-.663.663-.672 1.996-1.998.671-.664.663-.672a.95.95 0 0 0 .331-.663c0-.218-.161-.392-.501-.501l-.994-.332c-.331-.111-.501-.28-.501-.502a.949.949 0 0 1 .331-.663l1.334-1.335.662-.672a.989.989 0 0 1 .672-.331V-25a.29.29 0 0 0-.333.329Zm-5.998 6.667a.337.337 0 0 0-.21-.3.332.332 0 0 0-.426.438.328.328 0 0 0 .305.203.29.29 0 0 0 .331-.342v.001Zm1.334-1.327a.34.34 0 0 0-.205-.314.337.337 0 1 0-.126.646.297.297 0 0 0 .331-.332Zm-1.334 36a.335.335 0 0 0-.205-.306.33.33 0 0 0-.451.241.328.328 0 0 0 .325.396.291.291 0 0 0 .331-.334v.003Zm1.334 1.335a.34.34 0 0 0-.205-.314.337.337 0 0 0-.46.245.334.334 0 0 0 .334.4.291.291 0 0 0 .331-.334v.003Zm3.33 3.997a.335.335 0 0 0 .205.307.33.33 0 0 0 .432-.434.332.332 0 0 0-.306-.204.293.293 0 0 0-.244.082.293.293 0 0 0-.087.243V22Zm-1.334-1.327a.335.335 0 0 0 .401.315.334.334 0 0 0 .256-.262.335.335 0 0 0-.142-.338.332.332 0 0 0-.183-.055.294.294 0 0 0-.252.084.288.288 0 0 0-.08.253v.003Zm-1.334-1.335a.337.337 0 0 0 .573.242.334.334 0 0 0-.241-.573.295.295 0 0 0-.248.08.298.298 0 0 0-.084.248v.003Zm.672-40.002a.336.336 0 1 0-.34.331.297.297 0 0 0 .254-.08.3.3 0 0 0 .086-.254v.003Zm1.326-1.335a.335.335 0 0 0-.205-.307.33.33 0 0 0-.452.242.334.334 0 0 0 .325.396.294.294 0 0 0 .251-.083.294.294 0 0 0 .081-.251v.003Zm1.333-1.335a.334.334 0 0 0-.055-.184.33.33 0 0 0-.601.12.33.33 0 0 0 .325.395.289.289 0 0 0 .249-.082.292.292 0 0 0 .082-.25Z" fill="#BF2C2F"/><path d="m151.361-5.334 1.996 1.998.663.672.671.663.663.663c.228.236.4.521.501.834.11.326.11.678 0 1.004a2.092 2.092 0 0 1-.501.833l-1.997 1.998-.662.672-.672.664-1.997 1.998-.662.672-.672.663-1.996 1.998-.663.672-.671.663-1.997 1.998-.662.672-.671.663-1.997 2-.662.671-.672.663-1.334 1.335a1.986 1.986 0 0 1-.662.438 2.256 2.256 0 0 1-.17.063c-.322.11-.672.11-.994 0a2.116 2.116 0 0 1-.833-.501l-17.984-18a2.122 2.122 0 0 1-.501-.834 1.567 1.567 0 0 1 0-1.003 2.17 2.17 0 0 1 .501-.834l.663-.663.671-.663.663-.672.671-.664.662-.671.663-.664.671-.663.663-.672.671-.663.663-.672.662-.663.672-.663.662-.672.672-.663.663-.672.662-.663.672-.663.662-.672.672-.663.663-.672.663-.663.671-.664.662-.672.672-.663.662-.672.663-.663.671-.663c.233-.232.518-.404.832-.501a1.52 1.52 0 0 1 .995 0c.059.019.115.04.17.062.249.098.475.247.662.438l.672.663 1.996 1.998.663.672.671.663 1.996 1.998.663.672.671.663 1.997 1.999.662.671.672.664 1.996 1.998.663.672.669.663Zm.662 3.333-1.997-1.998-.662-.672-.672-.663-1.996-1.998-.663-.672-.671-.663-1.997-2-.662-.671-.671-.663L140.035-14l-.662-.671-.672-.664-1.334-1.335a1.985 1.985 0 0 0-.662-.437 2.3 2.3 0 0 0-.17-.063 1.537 1.537 0 0 0-.994 0c-.313.1-.598.272-.833.501L119.39-1.336c-.231.234-.403.52-.501.834a1.54 1.54 0 0 0 0 1.003c.097.315.269.6.501.834l.663.663.663.672.671.664.662.672.672.663.662.663.663.672.671.663.663.672.671.663.663.663.663.672.671.663.663.672.671.663.664.663.662.672.671.664.663.671.671.664.663.663.662.672.672.663c.234.23.519.402.832.501.322.11.672.11.995 0 .058-.019.115-.04.169-.063.248-.1.474-.248.663-.438l.671-.663.663-.672.671-.663.663-.663.662-.672.671-.663.663-.672.671-.663.663-.663.662-.672.672-.663.662-.672.672-.663.662-.663.663-.672.671-.663.663-.672.671-.664.663-.663.663-.672.671-.664.663-.671.671-.664a2.1 2.1 0 0 0 .493-.833 1.54 1.54 0 0 0 0-1.004 2.147 2.147 0 0 0-.493-.833l-.673-.666Z" fill="#ED5312"/><path d="M150.027-1.337c.229.236.4.521.502.834.11.325.11.678 0 1.003-.1.313-.272.599-.502.834l-12.661 12.67c-.19.187-.415.333-.663.43a2.299 2.299 0 0 1-.17.063 1.517 1.517 0 0 1-.994 0 2.097 2.097 0 0 1-.832-.493l-1.334-1.335-.663-.672-.671-.663-1.997-1.998-.663-.672-.671-.663-1.997-1.999-.663-.672-.671-.663-1.997-1.999-.662-.672-.672-.663a2.12 2.12 0 0 1-.501-.833 1.567 1.567 0 0 1 0-1.004 2.17 2.17 0 0 1 .501-.834l.672-.663.662-.663.663-.672.671-.663.663-.672.671-.663.663-.663.663-.672.671-.663.663-.672.671-.663.663-.664.663-.671.671-.664.663-.671.671-.664.663-.663.662-.672.672-.663c.234-.23.519-.402.832-.502.322-.11.672-.11.994 0a2.3 2.3 0 0 1 .17.063c.248.1.473.249.663.438l.671.663.663.672.671.663.662.663.663.672.671.663.663.672.671.663.663.663.663.672.671.663.663.672.671.663.663.664.662.672.672.663.662.672.672.663.664.665Zm-2.166.834c-.098-.314-.27-.6-.501-.834l-9.994-10.003a1.97 1.97 0 0 0-.663-.43 2.254 2.254 0 0 0-.17-.063 1.514 1.514 0 0 0-.994 0 2.096 2.096 0 0 0-.832.493l-1.334 1.335-.663.672-.671.663-1.997 1.999-.663.672-.671.663-1.997 1.998-.663.672-.671.663-.663.663a2.14 2.14 0 0 0-.501.834c-.11.325-.11.678 0 1.003.1.314.271.6.501.834l1.996 1.998.663.672.671.663 1.997 1.999.662.671.672.664 1.996 1.998.663.672.671.663c.235.23.52.401.832.501.323.11.673.11.995 0 .059-.02.115-.04.17-.063.248-.1.473-.249.662-.437l.671-.664.663-.671.671-.664.663-.671.663-.664.671-.663.662-.672L142.7 6l.662-.672.664-.663.671-.663.662-.672.672-.664.662-.672.663-.663c.232-.233.404-.52.501-.834.112-.324.113-.676.003-1h.001Z" fill="#388CBA"/><path d="M98.073-.002a.953.953 0 0 0 .33-.663.983.983 0 0 0-.33-.672L97.4-2l-.662-.663-.663-.672-.671-.663-.663-.672-.671-.663-.663-.663-.662-.672-.671-.663-.663-.672-.671-.663-.663-.664-.663-.671a.981.981 0 0 0-.67-.332v2.67a.98.98 0 0 1 .67.332l.663.663.663.672.67.663 1.997 1.998.663.672.671.663.663.663a.983.983 0 0 1 .331.672.955.955 0 0 1-.331.663l-.663.672-.671.664-.663.663-.662.672-.671.664-.663.672-.671.663-.663.663-.663.672a.981.981 0 0 1-.67.332v2.67a.967.967 0 0 0 .67-.34l8.658-8.667ZM183.331-9.33l-.663.663-.671.663-.663.672-.671.663-.663.672-.662.663-.672.663-.662.672-.672.663-.662.672-.664.663-.671.663a.98.98 0 0 0-.331.672.95.95 0 0 0 .331.663l8.658 8.666a.976.976 0 0 0 .671.34v-2.67a.982.982 0 0 1-.671-.331l-.662-.672-.663-.663-.671-.664-.663-.672-.671-.663-.663-.672-.662-.663-.672-.664-.662-.672a.95.95 0 0 1-.332-.663.985.985 0 0 1 .332-.672l.662-.663.672-.664.662-.672 1.997-1.998.671-.663.663-.672.662-.663a.98.98 0 0 1 .671-.332v-2.669a.982.982 0 0 0-.671.332l-.662.672ZM145.2-.503c.11.325.11.678 0 1.003a2.11 2.11 0 0 1-.501.834l-.671.663-.663.672-1.996 2-.671.662-.663.672-1.996 1.998-.672.664c-.187.19-.413.34-.662.437a2.28 2.28 0 0 1-.17.062 1.52 1.52 0 0 1-.995 0 2.024 2.024 0 0 1-.832-.5L134.037 8l-.663-.663-.662-.672-.672-.663-.662-.672-.671-.663-.664-.664-.662-.671-.672-.664-.662-.672-.671-.663a2.1 2.1 0 0 1-.493-.834 1.54 1.54 0 0 1 0-1.004c.098-.311.267-.597.493-.833l.671-.663L130.043-4l.664-.672.671-.663 1.996-1.998.663-.672.671-.663c.235-.23.52-.401.832-.501.323-.11.673-.11.995 0 .059.019.115.04.17.063.248.1.473.249.662.437l.672.663.662.672.671.664.663.671.663.664.671.663.662.672.672.663.662.672.663.663.671.663c.229.237.4.523.501.836Zm-2.668 0a2.128 2.128 0 0 0-.501-.834L141.369-2l-.671-.663-.663-.672-1.996-1.998-.672-.663a1.888 1.888 0 0 0-.662-.438 2.28 2.28 0 0 0-.17-.062 1.517 1.517 0 0 0-.995 0 2.023 2.023 0 0 0-.832.501l-.671.663-.663.663-.662.672-.672.663-.662.672-.671.664-.664.663a2.17 2.17 0 0 0-.501.833c-.11.326-.11.678 0 1.004.1.313.272.598.501.833l4.664 4.669c.235.23.52.401.833.501.322.11.672.11.994 0 .059-.02.115-.04.17-.063a2 2 0 0 0 .663-.437L138.7 4.67l.672-.664.662-.672 1.997-1.998c.23-.234.401-.52.501-.833.11-.326.111-.68 0-1.006Z" fill="#20C7AB"/><path d="M117.885 7.83c.331-.11.501-.273.501-.493a.955.955 0 0 0-.332-.672l-.671-.663-.662-.672-.663-.663-.671-.663-.663-.672-.671-.664-.663-.672-.662-.663a2.019 2.019 0 0 1-.501-.833 1.54 1.54 0 0 1 0-1.004c.098-.314.27-.6.501-.834l5.326-5.332a.951.951 0 0 0 .332-.663c0-.219-.17-.392-.501-.502a3.7 3.7 0 0 0-1.165-.17h-10.654a3.767 3.767 0 0 0-1.173.17c-.331.11-.493.28-.493.502a.968.968 0 0 0 .332.663l.662.672.672.663.662.663.663.672.671.663.663.672.671.663.662.664c.229.236.4.521.501.833.11.326.11.678 0 1.004a2.11 2.11 0 0 1-.501.833l-5.326 5.333a.952.952 0 0 0-.332.672c0 .218.162.383.493.493.379.119.775.176 1.173.17h10.654c.395.007.788-.05 1.165-.17ZM162.015-1.336l.671-.663.663-.663.662-.672.672-.663.662-.672.672-.663.662-.664.663-.671a.94.94 0 0 0 .34-.663c0-.22-.171-.393-.501-.503a3.71 3.71 0 0 0-1.165-.17h-10.663a3.715 3.715 0 0 0-1.165.17c-.331.11-.5.28-.5.502a.949.949 0 0 0 .331.664l1.334 1.335.671.663.663.672L158.683-2l.671.663c.226.237.395.522.493.834a1.54 1.54 0 0 1 0 1.003 2.099 2.099 0 0 1-.493.834l-.671.663-.663.672-.671.664-.662.672-.663.663-.671.663-.663.672-.671.663a.97.97 0 0 0-.331.672c0 .219.169.383.5.493.377.12.771.177 1.165.17h10.663a3.66 3.66 0 0 0 1.165-.17c.331-.11.501-.273.501-.493a.944.944 0 0 0-.34-.672l-.663-.663-.662-.672-.672-.663-1.996-1.999-.663-.672-.671-.663a2.122 2.122 0 0 1-.501-.834 1.567 1.567 0 0 1 0-1.003 2.17 2.17 0 0 1 .501-.834Z" fill="#388CBA"/><path d="M141.198-.503a1.54 1.54 0 0 1 0 1.004c-.097.314-.269.6-.501.833l-.663.663-.662.672-.672.664-.662.672-.672.663a1.987 1.987 0 0 1-.662.437 2.278 2.278 0 0 1-.17.064c-.322.11-.672.11-.994 0a2.113 2.113 0 0 1-.833-.501l-.671-.664-.662-.672-1.997-1.998a2.105 2.105 0 0 1-.502-.833 1.567 1.567 0 0 1 0-1.004c.102-.313.273-.598.502-.834L132.04-2l.671-.663.663-.672 1.333-1.335c.236-.227.521-.396.833-.493.322-.112.672-.112.994 0 .059.019.115.04.17.062.248.098.473.244.662.431l3.331 3.333c.231.234.403.52.501.834Zm-2.659 0a2.17 2.17 0 0 0-.501-.834L137.366-2a1.987 1.987 0 0 0-.662-.437 2.283 2.283 0 0 0-.17-.063 1.537 1.537 0 0 0-.994 0c-.313.1-.598.271-.833.5l-.671.664a2.147 2.147 0 0 0-.493.834 1.554 1.554 0 0 0 0 1.003 2.1 2.1 0 0 0 .493.834l.671.663c.233.233.519.405.833.501.322.112.672.112.994 0 .059-.018.115-.04.17-.062.249-.097.475-.246.662-.437l.672-.664c.229-.235.401-.52.501-.833a1.56 1.56 0 0 0 0-1.006Z" fill="#FFA227"/><path d="M136.705-1.098a1.17 1.17 0 0 0-.17-.073 1.535 1.535 0 0 0-.994 0 1.005 1.005 0 0 0-.672.663 1.58 1.58 0 0 0 0 1.003 1.017 1.017 0 0 0 .672.664 1.514 1.514 0 0 0 1.164-.073.998.998 0 0 0 .502-.593c.11-.325.11-.678 0-1.003a.995.995 0 0 0-.502-.588Z" fill="#ED5312"/><path d="M89.577 1.835c.111.331.28.501.5.501a.935.935 0 0 0 .663-.34l.672-.664a.957.957 0 0 0 .331-.663c0-.228-.17-.392-.5-.502a1.517 1.517 0 0 0-.995 0 .992.992 0 0 0-.671.663c-.11.326-.11.679 0 1.005ZM183.162.169a1.517 1.517 0 0 0-.994 0c-.332.11-.502.273-.502.501a.951.951 0 0 0 .331.664l.672.663a.933.933 0 0 0 .662.34c.219 0 .39-.17.502-.5.11-.326.11-.679 0-1.004a.995.995 0 0 0-.671-.664Z" fill="#FFA227"/><path d="M125.882 15.832c.331-.11.501-.273.501-.501a.967.967 0 0 0-.332-.663l-.671-.663-.663-.672-.67-.664-.663-.671-.662-.663-.672-.664-.662-.672-.671-.663-.663-.672a.836.836 0 0 0-1.334 0l-.662.672-.672.663-.662.672-.663.664-.671.663-.663.671-.671.664-.663.672-.662.663a.949.949 0 0 0-.34.663c0 .228.169.391.501.501.377.12.77.177 1.165.17h10.663a3.66 3.66 0 0 0 1.162-.17ZM158.686 14.004l-.662-.672-.672-.663-.662-.672-.663-.663-.671-.663-.663-.672-.671-.663-.663-.672a.832.832 0 0 0-1.039-.244.836.836 0 0 0-.295.244l-.662.672-.671.663-.664.672-.662.663-.672.663-.662.672-.672.663-.662.672-.663.663a.957.957 0 0 0-.34.663c0 .229.17.392.501.502.377.119.77.176 1.165.17h10.663c.395.006.788-.051 1.165-.17.331-.11.5-.274.5-.502a.948.948 0 0 0-.331-.663l-.672-.663Z" fill="#20C7AB"/><path d="M133.875 23.835c.332-.11.501-.28.501-.502a.94.94 0 0 0-.34-.663l-.662-.672-.664-.663-.67-.663-.664-.672-.671-.663-.662-.672-.663-.663-.671-.663-.663-.672a.842.842 0 0 0-.667-.332.832.832 0 0 0-.667.332l-.662.672-.672.663L123.382 20l-.663.672-.671.663-1.334 1.335a.968.968 0 0 0-.331.663c0 .219.17.392.501.502.377.118.77.175 1.165.17h10.662a3.71 3.71 0 0 0 1.164-.17ZM145.362 16.666a.953.953 0 0 0-.663-.332.98.98 0 0 0-.671.332l-.663.672-.662.663-.672.663-.662.672-.672.663-.662.672-.663.663-.671.664-.663.671a.963.963 0 0 0-.331.664c0 .218.162.391.493.501.379.118.775.175 1.172.17h10.654a3.7 3.7 0 0 0 1.165-.17c.331-.11.501-.28.501-.501a.95.95 0 0 0-.331-.663l-5.999-6.004Z" fill="#FFA227"/><path d="m142.703 30-.671-.663-.663-.672-.671-.663-.663-.663-.662-.672-.672-.663-.662-.672-.672-.663a1.986 1.986 0 0 0-.662-.438 2.431 2.431 0 0 0-.17-.063 1.54 1.54 0 0 0-.994 0c-.312.1-.598.272-.833.501l-.671.663-.663.672-1.996 1.998-.671.664-.663.672-1.334 1.335a.95.95 0 0 0-.331.663c0 .218.17.39.501.501.377.116.77.17 1.165.162h11.987c.395.008.788-.046 1.165-.162.34-.111.501-.28.501-.501a.95.95 0 0 0-.331-.663l-.664-.673Z" fill="#388CBA"/><path d="M199.324-1.337a.98.98 0 0 1 .331.672.948.948 0 0 1-.331.663l-.663.672-.671.664-1.996 1.999-.663.671-.671.664-1.997 1.998-.662.672-.672.663-1.996 1.998-.663.672-.671.663-1.996 1.998a.97.97 0 0 0-.332.672c0 .219.162.384.502.494.377.119.77.176 1.165.17h6.661c.395-.007.788.05 1.165.17.331.11.501.273.501.493a.97.97 0 0 1-.331.672l-.671.663-.663.672-.671.663-.663.663-.662.672-.672.663-.662.672-.672.663-.662.663-.663.672-.671.663-.663.672-.671.663-.662.663a.985.985 0 0 0-.332.672c0 .219.162.39.502.503l.994.331c.331.11.501.273.501.501a.965.965 0 0 1-.331.664l-.671.663-.663.672-.662.663a.983.983 0 0 1-.672.331v-6.666a.334.334 0 0 0 .332-.332.332.332 0 0 0-.332-.331v-1.999a.99.99 0 0 0 .672-.331l.662-.672 1.997-1.998.671-.663a.99.99 0 0 0 .331-.672c0-.219-.169-.39-.501-.502a3.715 3.715 0 0 0-1.165-.162h-2.67v-4.336a.98.98 0 0 0 .671-.332l.663-.663.662-.672.671-.663.663-.672.671-.663.663-.663.663-.672.671-.663.662-.672.672-.663.662-.664.663-.671.671-.664.663-.672.671-.663.663-.664.662-.672a.947.947 0 0 0 .34-.663.959.959 0 0 0-.34-.672l-11.317-11.327a.964.964 0 0 0-.671-.34v-4.33h2.668a3.66 3.66 0 0 0 1.165-.17c.331-.11.501-.272.501-.5a.967.967 0 0 0-.332-.664l-.671-.663-.663-.672-.671-.663-.662-.672-.663-.663a.981.981 0 0 0-.671-.331v-2a.335.335 0 0 0 .237-.573.335.335 0 0 0-.237-.098v-6.667a.989.989 0 0 1 .671.332l.663.672 1.333 1.335a.949.949 0 0 1 .332.663c0 .218-.17.39-.502.502l-.994.332c-.339.11-.501.28-.501.5a.948.948 0 0 0 .331.664l.662.672.672.663 1.996 1.998.663.672.671.663 1.997 1.999.662.672.671.663 1.334 1.335a.954.954 0 0 1 .332.663c0 .219-.17.391-.502.501-.377.119-.77.176-1.165.17h-6.661a3.718 3.718 0 0 0-1.165.162c-.339.111-.501.28-.501.501a.932.932 0 0 0 .331.663l.663.672.671.663.662.672.672.664.662.663.663.672.671.663.663.672.671.663.663.663.662.672.672.663.662.672.671.663.663.663.663.672.671.663.662.672.672.663.666.666Zm-8.326-16.668a.336.336 0 0 0 .205.307.33.33 0 0 0 .451-.242.328.328 0 0 0-.325-.396.293.293 0 0 0-.247.084.3.3 0 0 0-.084.247Zm-1.334-1.326a.337.337 0 0 0 .573.238.336.336 0 1 0-.573-.238Zm-3.33-4.009a.335.335 0 0 0-.205-.306.33.33 0 0 0-.451.242.33.33 0 0 0 .325.396.29.29 0 0 0 .317-.193.297.297 0 0 0 .014-.132v-.007Zm1.334 1.335a.336.336 0 0 0-.205-.306.33.33 0 0 0-.451.242.33.33 0 0 0 .324.396.292.292 0 0 0 .332-.328v-.004Zm1.334 1.335a.34.34 0 0 0-.206-.313.332.332 0 0 0-.367.072.334.334 0 0 0 .241.573.294.294 0 0 0 .248-.081.299.299 0 0 0 .084-.247v-.003Zm-2.668 42.664a.334.334 0 0 0-.401-.315.334.334 0 0 0-.256.263.335.335 0 0 0 .142.337.334.334 0 0 0 .184.056.289.289 0 0 0 .253-.085.3.3 0 0 0 .07-.118.303.303 0 0 0 .008-.137Zm1.334-1.327a.335.335 0 0 0-.205-.306.33.33 0 0 0-.451.241.33.33 0 0 0 .324.397.3.3 0 0 0 .246-.083.296.296 0 0 0 .071-.112c.015-.043.02-.088.015-.132v-.005Zm1.334-1.335a.34.34 0 0 0-.206-.314.332.332 0 0 0-.367.072.334.334 0 0 0 .241.573.292.292 0 0 0 .332-.327v-.004Zm1.996-2.67a.335.335 0 0 0 .205.306.33.33 0 0 0 .451-.241.328.328 0 0 0-.325-.396.289.289 0 0 0-.321.2.298.298 0 0 0-.01.135v-.004Zm-1.334 1.335a.335.335 0 0 0 .665.069.334.334 0 0 0-.333-.4.292.292 0 0 0-.332.335v-.004ZM280.258-24.671a.299.299 0 0 0 .195.327c.044.015.09.02.136.013v1.998a.978.978 0 0 0-.671.332l-.663.663-.662.672-.672.663-.662.672-.672.663a.968.968 0 0 0-.331.663c0 .228.17.392.501.502.377.119.77.176 1.165.17h2.668v4.328a.964.964 0 0 0-.671.34L268.604-1.336a.958.958 0 0 0-.34.672.94.94 0 0 0 .34.663l.662.672.664.664.671.663.663.672.671.664.662.672.663.663.671.663.663.672.671.663.663.672.662.663.672.664.662.671.672.664.662.671.663.664a.978.978 0 0 0 .671.331v4.337h-2.668a3.715 3.715 0 0 0-1.165.162c-.332.111-.501.28-.501.501a.99.99 0 0 0 .331.672l.671.663L279.257 20l.662.672a.99.99 0 0 0 .672.332V23a.332.332 0 1 0 0 .663v6.667a.981.981 0 0 1-.672-.332l-.662-.663-.663-.672-.671-.663a.954.954 0 0 1-.331-.663c0-.229.169-.392.501-.502l.994-.331c.339-.111.501-.28.501-.502a.984.984 0 0 0-.331-.672l-.663-.663-.671-.663-.663-.672-.671-.663-.663-.672-.662-.664-.672-.663-.662-.671-.671-.664-.663-.672-.663-.663-.671-.663-.662-.672-.672-.663a.969.969 0 0 1-.331-.672c0-.218.17-.383.502-.493.376-.12.77-.177 1.165-.17h6.66c.395.007.789-.05 1.165-.17.34-.11.501-.273.501-.493a.952.952 0 0 0-.331-.672l-1.997-1.998-.671-.664-.662-.671L273.932 8l-.671-.663-.663-.672-1.996-1.998-.672-.663-.663-.672-1.996-1.998-.672-.664-.662-.672a.95.95 0 0 1-.332-.663.985.985 0 0 1 .332-.672l.662-.663.672-.663.662-.672.672-.663.662-.672.663-.663.672-.664.662-.672.672-.663.662-.672.663-.663.671-.663.663-.672.671-.663.663-.672.662-.663.671-.663.663-.672.671-.663.663-.672a.948.948 0 0 0 .331-.663c0-.219-.161-.39-.501-.502a3.704 3.704 0 0 0-1.165-.162h-6.66a3.71 3.71 0 0 1-1.165-.17c-.332-.11-.502-.28-.502-.5a.967.967 0 0 1 .331-.664l1.334-1.335.671-.663.663-.672 1.996-1.998.672-.663.662-.672 1.997-1.998.671-.664.663-.672a.963.963 0 0 0 .331-.663c0-.218-.162-.392-.501-.501l-.994-.332c-.331-.111-.501-.28-.501-.502a.949.949 0 0 1 .331-.663l1.334-1.335.662-.672a.989.989 0 0 1 .672-.331V-25a.29.29 0 0 0-.333.329Zm-5.998 6.667a.334.334 0 0 0-.401-.315.334.334 0 0 0-.256.262.335.335 0 0 0 .142.338.333.333 0 0 0 .183.055.296.296 0 0 0 .254-.084.292.292 0 0 0 .078-.256Zm1.334-1.327a.337.337 0 0 0-.573-.242.334.334 0 0 0 .241.573.3.3 0 0 0 .247-.084.302.302 0 0 0 .085-.247Zm-1.334 36a.335.335 0 0 0-.205-.306.33.33 0 0 0-.361.072.337.337 0 0 0-.091.17.334.334 0 0 0 .325.396.294.294 0 0 0 .251-.083.294.294 0 0 0 .081-.252v.003Zm1.334 1.335a.337.337 0 0 0-.573-.242.334.334 0 0 0 .241.573.294.294 0 0 0 .251-.082.294.294 0 0 0 .081-.252v.003Zm3.33 3.997a.33.33 0 0 0 .656.065.33.33 0 0 0-.325-.396.293.293 0 0 0-.244.082.293.293 0 0 0-.087.243V22Zm-1.334-1.327a.338.338 0 0 0 .06.182.332.332 0 1 0 .271-.522.291.291 0 0 0-.331.337v.003Zm-1.334-1.335a.34.34 0 0 0 .205.314.337.337 0 1 0 .126-.645.292.292 0 0 0-.331.328v.003Zm.672-40.002a.337.337 0 0 0-.57-.245.34.34 0 0 0-.078.365.338.338 0 0 0 .307.211.3.3 0 0 0 .255-.08.3.3 0 0 0 .086-.254v.003Zm1.325-1.335a.334.334 0 0 0-.055-.184.334.334 0 0 0-.51-.05.33.33 0 0 0 .234.566.29.29 0 0 0 .321-.2.283.283 0 0 0 .01-.135v.003Zm1.334-1.335a.33.33 0 1 0-.637.127.327.327 0 0 0 .306.204.289.289 0 0 0 .249-.082.289.289 0 0 0 .07-.115.306.306 0 0 0 .012-.134Z" fill="#BF2C2F"/><path d="m247.285-5.334 1.996 1.998.663.672.671.663.662.664c.229.235.401.52.502.833.11.326.11.678 0 1.004a2.083 2.083 0 0 1-.502.833l-1.996 1.999-.663.672-.671.663-1.997 1.998-.663.672-.671.663-1.996 1.998-.663.672-.671.663-1.997 1.999-.662.671-.672.664-1.996 1.999-.663.671-.671.664-1.334 1.335a1.985 1.985 0 0 1-.662.437 2.256 2.256 0 0 1-.17.063c-.322.11-.672.11-.995 0a2.12 2.12 0 0 1-.832-.501l-17.984-18a2.122 2.122 0 0 1-.501-.834 1.567 1.567 0 0 1 0-1.003 2.17 2.17 0 0 1 .501-.834l.663-.663.671-.663.662-.672.672-.663.662-.672.663-.663.671-.664.663-.671.671-.664.663-.671.662-.664.672-.663.662-.672.671-.663.664-.672.662-.663.672-.663.662-.672.671-.663.664-.672.662-.663.672-.663.662-.672.672-.663.662-.672.663-.664.671-.663c.233-.232.518-.404.832-.501a1.52 1.52 0 0 1 .995 0c.059.019.115.04.169.063.25.097.476.246.663.437l.671.663 1.997 1.998.662.672.672.663 1.996 1.998.663.672.671.664 1.997 1.998.662.672.671.663 1.997 1.998.663.672.669.663ZM247.947-2l-1.997-1.998-.663-.672-.671-.663-1.996-1.998-.663-.672-.671-.663-1.997-2-.662-.671-.672-.663L235.959-14l-.663-.672-.671-.663-1.334-1.335a1.996 1.996 0 0 0-.662-.438 2.256 2.256 0 0 0-.17-.063 1.539 1.539 0 0 0-.995 0 2.12 2.12 0 0 0-.832.501L215.314-1.336c-.231.234-.403.52-.501.834a1.54 1.54 0 0 0 0 1.003c.097.315.269.601.501.834l.663.663.662.672.672.664.662.672.672.663.662.663.663.672.671.663.663.672.671.663.663.663.663.672.671.664.663.671.671.663.663.664.663.672.671.663.663.672.671.663.663.663.662.672.672.663c.234.23.519.402.832.501.322.11.672.11.994 0 .059-.018.115-.04.17-.063.248-.1.473-.248.663-.437l.671-.663.663-.672.671-.664.662-.663.663-.671.671-.664.663-.672.671-.663.663-.663.662-.672.672-.663.662-.672.671-.663.663-.663.663-.672.671-.663.663-.672.671-.663.662-.663.664-.672.671-.664.663-.672.671-.663a2.1 2.1 0 0 0 .493-.834 1.54 1.54 0 0 0 0-1.004 2.16 2.16 0 0 0-.493-.833l-.673-.666Z" fill="#ED5312"/><path d="M245.951-1.337c.228.236.4.521.502.834.11.325.11.678 0 1.003a2.123 2.123 0 0 1-.502.834l-12.662 12.67a1.958 1.958 0 0 1-.662.43 2.299 2.299 0 0 1-.17.063 1.517 1.517 0 0 1-.994 0 2.108 2.108 0 0 1-.833-.493l-1.333-1.335-.663-.672-.671-.663-1.997-1.998-.663-.672-.671-.663-1.997-1.999-.663-.672-.672-.663-1.996-1.999-.663-.672-.671-.663a2.12 2.12 0 0 1-.501-.833 1.567 1.567 0 0 1 0-1.004 2.17 2.17 0 0 1 .501-.834l.671-.663.663-.663.663-.672.671-.663.662-.672.672-.663.663-.663.663-.672.671-.663.663-.672.671-.663.663-.664.663-.671.671-.664.663-.671.671-.664.663-.663.662-.672.671-.663c.235-.23.52-.402.833-.502.322-.11.672-.11.994 0a2.3 2.3 0 0 1 .17.063c.248.1.473.249.662.438l.672.663.662.672.672.663.662.663.663.672.671.663.663.672.671.663.663.663.663.672.671.663.663.672.671.663.663.664.662.672.672.663.662.672.671.663.665.665Zm-2.166.834c-.098-.314-.27-.6-.501-.834l-9.995-10.003a1.957 1.957 0 0 0-.662-.43 2.254 2.254 0 0 0-.17-.063 1.514 1.514 0 0 0-.994 0 2.106 2.106 0 0 0-.833.493l-1.333 1.335-.663.672-.671.663-1.997 1.999-.663.672-.671.663-1.997 1.998-.663.672-.672.663-.662.663a2.14 2.14 0 0 0-.501.834c-.11.325-.11.678 0 1.003.099.314.271.6.501.834l1.996 1.998.663.672.671.663 1.997 1.999.662.671.672.664 1.996 1.998.663.672.671.663c.235.23.52.401.832.501.323.11.672.11.995 0 .059-.02.115-.04.169-.063.248-.1.474-.249.663-.437l.671-.664.663-.671.671-.664.663-.671.662-.664.672-.663.662-.672.671-.663.663-.672.663-.663.672-.663.662-.672.672-.664.662-.672.663-.663c.232-.233.404-.52.501-.834.112-.324.113-.676.003-1h.001Z" fill="#388CBA"/><path d="M193.996-.002a.95.95 0 0 0 .332-.663.985.985 0 0 0-.332-.672L193.325-2l-.662-.663-.663-.672-.671-.663-.663-.672-.671-.663-.663-.663-.662-.672-.672-.663-.662-.672-.672-.663-.662-.664-.663-.671a.98.98 0 0 0-.671-.332v2.67c.259.017.5.137.671.332l.663.663.662.672.672.663 1.996 1.998.663.672.671.663.663.663a.984.984 0 0 1 .331.672.95.95 0 0 1-.331.663l-.663.672-.671.664-.663.663-.662.672-.672.664-.662.672-.672.663-.662.663-.663.672a.98.98 0 0 1-.671.332v2.67a.965.965 0 0 0 .671-.34l8.657-8.667ZM279.254-9.33l-.662.663-.672.663-.662.672-.671.663-.663.672-.663.663-.671.663-.662.672-.672.663-.662.672-.664.663-.671.664a.98.98 0 0 0-.331.672.948.948 0 0 0 .331.663l8.658 8.665a.965.965 0 0 0 .671.34v-2.67a.98.98 0 0 1-.671-.331l-.663-.672-.662-.663-.672-.663-.662-.672-.671-.664-.663-.672-.663-.663-.671-.664-.662-.672a.95.95 0 0 1-.332-.663.985.985 0 0 1 .332-.672l.662-.663.671-.663.663-.672 1.996-1.999.672-.663.662-.672.663-.663a.979.979 0 0 1 .671-.331v-2.67a.98.98 0 0 0-.671.332l-.663.672ZM241.124-.503c.11.325.11.678 0 1.003-.1.313-.272.599-.501.834l-.671.663-.663.672-1.996 2-.672.662-.662.672-1.997 1.998-.671.664c-.187.19-.413.34-.662.437a2.28 2.28 0 0 1-.17.062 1.52 1.52 0 0 1-.995 0 2.024 2.024 0 0 1-.832-.5L229.961 8l-.663-.663-.662-.672-.672-.663-.662-.672-.672-.663-.663-.664-.663-.671-.671-.664-.662-.672-.672-.663a2.111 2.111 0 0 1-.493-.834 1.554 1.554 0 0 1 0-1.004 2.16 2.16 0 0 1 .493-.833l.672-.663L225.967-4l.663-.672.672-.663 1.996-1.998.663-.672.671-.663c.235-.23.52-.401.832-.501.323-.11.672-.11.995 0 .059.019.115.04.17.063.247.1.473.249.662.437l.671.663.663.672.671.664.663.671.662.664.672.663.662.672.672.663.662.672.663.663.671.663c.228.237.4.523.501.836Zm-2.668 0a2.14 2.14 0 0 0-.501-.834L237.293-2l-.672-.663-.662-.672-1.997-1.998-.671-.663a1.888 1.888 0 0 0-.662-.438 2.28 2.28 0 0 0-.17-.062 1.517 1.517 0 0 0-.995 0 2.023 2.023 0 0 0-.832.501l-.671.663-.663.663-.662.672-.672.663-.662.672-.672.664-.663.663a2.17 2.17 0 0 0-.501.833c-.11.326-.11.678 0 1.004.1.313.272.598.501.833l4.664 4.669c.235.23.52.401.833.501.322.11.672.11.994 0 .059-.02.115-.04.17-.063.248-.1.473-.249.662-.437l1.334-1.335.672-.664.662-.672 1.997-1.998c.23-.234.401-.52.501-.833.11-.326.11-.68 0-1.006Z" fill="#20C7AB"/><path d="M213.809 7.831c.331-.11.501-.273.501-.493a.971.971 0 0 0-.332-.672l-.671-.663-.663-.672-.662-.663-.671-.663-.663-.672-.671-.664-.663-.672-.662-.663a2.008 2.008 0 0 1-.501-.834 1.54 1.54 0 0 1 0-1.003c.098-.314.27-.6.501-.834l5.326-5.332a.951.951 0 0 0 .332-.664c0-.218-.17-.392-.501-.502a3.7 3.7 0 0 0-1.165-.17h-10.655a3.765 3.765 0 0 0-1.172.17c-.331.11-.493.28-.493.502a.95.95 0 0 0 .331.664l.663.672.671.663.663.663.662.672.672.663.662.672.672.663.662.663c.228.236.4.521.501.834.11.325.11.678 0 1.003a2.11 2.11 0 0 1-.501.834l-5.327 5.332a.966.966 0 0 0-.331.672c0 .219.162.383.493.493a3.71 3.71 0 0 0 1.172.17h10.655c.395.007.788-.05 1.165-.169ZM257.939-1.336l.671-.663.663-.663.662-.672.671-.663.663-.672.671-.663.663-.664.662-.671a.933.933 0 0 0 .341-.664c0-.218-.171-.392-.501-.502a3.715 3.715 0 0 0-1.165-.17h-10.663a3.71 3.71 0 0 0-1.165.17c-.331.11-.501.28-.501.502a.955.955 0 0 0 .332.663l1.333 1.336.672.663.662.672L254.607-2l.671.663c.226.237.394.522.493.834a1.54 1.54 0 0 1 0 1.003 2.099 2.099 0 0 1-.493.834l-.671.663-.663.672-.671.664-.663.672-.662.663-.672.663-.662.672-.671.663a.956.956 0 0 0-.332.672c0 .219.17.383.501.493.377.12.77.177 1.165.17h10.663c.394.007.788-.05 1.165-.17.331-.11.501-.273.501-.493a.944.944 0 0 0-.341-.672l-.662-.663-.663-.672-.671-.663-1.996-1.999-.663-.672-.671-.663a2.11 2.11 0 0 1-.501-.834 1.567 1.567 0 0 1 0-1.003c.101-.313.273-.598.501-.834Z" fill="#388CBA"/><path d="M237.122-.503a1.54 1.54 0 0 1 0 1.004c-.097.314-.269.6-.501.833l-.663.663-.663.672-.671.664-.662.672-.672.663a1.987 1.987 0 0 1-.662.437 2.278 2.278 0 0 1-.17.064 1.54 1.54 0 0 1-.995 0 2.116 2.116 0 0 1-.832-.501l-.671-.664-.663-.672-1.996-1.998a2.105 2.105 0 0 1-.502-.833 1.567 1.567 0 0 1 0-1.004c.101-.313.273-.598.502-.834l.662-.663.672-.663.662-.672 1.334-1.335c.235-.227.52-.396.832-.493a1.52 1.52 0 0 1 .995 0c.059.019.115.04.17.062.247.098.473.244.662.431l3.331 3.333c.231.234.403.52.501.834Zm-2.659 0a2.17 2.17 0 0 0-.501-.834L233.29-2a1.987 1.987 0 0 0-.662-.437 2.283 2.283 0 0 0-.17-.063 1.54 1.54 0 0 0-.995 0 2.12 2.12 0 0 0-.832.5l-.671.664a2.147 2.147 0 0 0-.493.834 1.54 1.54 0 0 0 0 1.003 2.1 2.1 0 0 0 .493.834l.671.663c.233.233.518.405.832.501.323.112.673.112.995 0 .059-.018.115-.04.17-.062.249-.097.475-.246.662-.437l.672-.664c.229-.235.401-.52.501-.833a1.56 1.56 0 0 0 0-1.006Z" fill="#FFA227"/><path d="M232.629-1.098a1.17 1.17 0 0 0-.17-.073 1.535 1.535 0 0 0-.994 0 1.005 1.005 0 0 0-.672.663c-.11.325-.11.678 0 1.003a1.017 1.017 0 0 0 .672.664 1.514 1.514 0 0 0 1.164-.073.998.998 0 0 0 .502-.593 1.58 1.58 0 0 0 0-1.003.995.995 0 0 0-.502-.588Z" fill="#ED5312"/><path d="M185.501 1.835c.111.332.279.501.501.501a.932.932 0 0 0 .662-.34l.671-.663a.954.954 0 0 0 .332-.664c0-.228-.17-.391-.501-.501a1.517 1.517 0 0 0-.994 0 .99.99 0 0 0-.671.663 1.556 1.556 0 0 0 0 1.004ZM279.085.169a1.514 1.514 0 0 0-.993 0c-.332.11-.502.273-.502.501a.951.951 0 0 0 .331.664l.671.663a.947.947 0 0 0 .663.34c.219 0 .39-.17.502-.5.11-.326.11-.679 0-1.004a.995.995 0 0 0-.672-.664Z" fill="#FFA227"/><path d="M221.806 15.833c.331-.11.5-.274.5-.502a.948.948 0 0 0-.331-.663l-.671-.663-.663-.672-.67-.663-.663-.672-.662-.663-.672-.663-.662-.672-.672-.663-.662-.672a.836.836 0 0 0-1.334 0l-.663.672-.671.663-.663.672-.662.663-.671.663-.663.672-.671.663-.663.672-.662.663a.949.949 0 0 0-.341.663c0 .229.17.392.502.502.377.119.77.176 1.165.17h10.663c.393.006.786-.051 1.162-.17ZM254.61 14.004l-.663-.672-.671-.663-.663-.672-.662-.663-.671-.663-.663-.672-.671-.663-.663-.672a.841.841 0 0 0-.667-.332.836.836 0 0 0-.667.332l-.662.672-.672.663-.663.672-.662.663-.672.663-.662.672-.672.663-.662.672-.663.663a.957.957 0 0 0-.34.663c0 .229.17.392.501.502.377.119.77.176 1.165.17h10.662c.395.006.789-.051 1.165-.17.332-.11.501-.274.501-.502a.948.948 0 0 0-.331-.663l-.672-.663Z" fill="#20C7AB"/><path d="M229.799 23.835c.331-.11.501-.28.501-.501a.939.939 0 0 0-.34-.663l-.663-.672-.663-.664-.67-.663L227.3 20l-.671-.663-.663-.672-.662-.663-.671-.663-.663-.672a.836.836 0 0 0-1.334 0l-.662.672-.672.663L219.306 20l-.663.672-.671.663-1.334 1.335a.967.967 0 0 0-.331.664c0 .218.169.391.501.501.376.118.77.176 1.165.17h10.662c.395.006.788-.052 1.164-.17ZM241.285 16.666a.938.938 0 0 0-.662-.332.98.98 0 0 0-.671.332l-.663.672-.663.663-.671.663-.662.672-.672.663-.662.672-.663.663-.671.664-.663.671a.948.948 0 0 0-.331.664c0 .218.162.391.493.501.379.118.775.175 1.172.17h10.654a3.7 3.7 0 0 0 1.165-.17c.331-.11.501-.28.501-.501a.968.968 0 0 0-.332-.663l-5.999-6.004Z" fill="#FFA227"/><path d="m238.627 30-.672-.663-.662-.672-.672-.663-.662-.663-.663-.672-.671-.663-.663-.672-.671-.663a1.986 1.986 0 0 0-.662-.438 2.431 2.431 0 0 0-.17-.063 1.54 1.54 0 0 0-.994 0c-.313.1-.598.272-.833.501l-.671.663-.663.672-1.996 1.998-.672.664-.662.672-1.334 1.335a.95.95 0 0 0-.331.663c0 .218.169.39.501.501.377.116.77.17 1.165.162h11.987c.395.008.788-.046 1.165-.162.339-.111.501-.28.501-.501a.95.95 0 0 0-.331-.663l-.664-.673Z" fill="#388CBA"/><path d="M295.246-1.337a.98.98 0 0 1 .331.672.95.95 0 0 1-.331.663l-.663.672-.671.664-1.997 1.999-.662.671-.671.664-1.997 1.998-.662.672-.672.663-1.996 1.998-.663.672-.671.663-1.997 1.998a.965.965 0 0 0-.331.672c0 .219.162.384.502.494.376.119.77.176 1.165.17h6.66c.395-.007.789.05 1.165.17.332.11.502.273.502.493a.953.953 0 0 1-.331.672l-.672.663-.662.672-.671.663-.663.663-.663.672-.671.663-.662.672-.672.663-.662.663-.663.672-.671.663-.663.672-.671.663-.663.663a.984.984 0 0 0-.331.672c0 .219.162.39.502.503l.994.331c.331.11.501.273.501.501a.949.949 0 0 1-.331.664l-.671.663-.663.672-.662.663a.983.983 0 0 1-.672.331v-6.666a.33.33 0 0 0 .331-.332.33.33 0 0 0-.331-.332v-1.998a.99.99 0 0 0 .672-.331l.662-.672 1.997-1.998.671-.663a.99.99 0 0 0 .331-.672c0-.219-.17-.39-.501-.502a3.715 3.715 0 0 0-1.165-.162h-2.67v-4.336a.98.98 0 0 0 .671-.332l.662-.663.663-.672.671-.663.663-.672.671-.663.663-.663.662-.672.672-.663.662-.672.672-.663.662-.664.663-.671.671-.664.663-.672.671-.663.662-.664.663-.672a.947.947 0 0 0 .34-.663.977.977 0 0 0-.34-.672l-11.317-11.327a.964.964 0 0 0-.671-.34v-4.33h2.668a3.66 3.66 0 0 0 1.165-.17c.331-.11.501-.272.501-.5a.967.967 0 0 0-.332-.664l-.671-.663-.663-.672-.671-.663-.663-.672-.662-.663a.981.981 0 0 0-.671-.331v-2a.335.335 0 0 0 .237-.573.335.335 0 0 0-.237-.098v-6.667a.989.989 0 0 1 .671.332l.662.672 1.334 1.335a.949.949 0 0 1 .332.663c0 .218-.17.39-.502.502l-.994.332c-.339.11-.502.28-.502.5a.968.968 0 0 0 .332.664l.662.672.672.663 1.996 1.998.663.672.671.663 1.996 1.999.663.672.671.663 1.334 1.335a.968.968 0 0 1 .332.663c0 .219-.17.391-.502.501-.377.119-.77.176-1.165.17h-6.661a3.714 3.714 0 0 0-1.165.162c-.339.111-.502.28-.502.501a.95.95 0 0 0 .332.663l.662.672.672.663.662.672.672.664.662.663.663.672.671.663.663.672.671.663.662.663.663.672.671.663.663.672.671.663.663.663.662.672.672.663.662.672.672.663.666.666Zm-8.326-16.668a.33.33 0 1 0 .637-.127.328.328 0 0 0-.306-.204.293.293 0 0 0-.247.084.3.3 0 0 0-.084.247Zm-1.334-1.326a.336.336 0 1 0 .672 0 .336.336 0 0 0-.672 0Zm-3.33-4.009a.335.335 0 0 0-.205-.306.33.33 0 0 0-.451.242.33.33 0 0 0 .324.396.292.292 0 0 0 .332-.325v-.007Zm1.334 1.335a.336.336 0 0 0-.205-.306.33.33 0 0 0-.361.072.337.337 0 0 0-.091.17.335.335 0 0 0 .325.396.292.292 0 0 0 .332-.328v-.004Zm1.334 1.335a.337.337 0 0 0-.666-.069.343.343 0 0 0 .146.346.334.334 0 0 0 .188.055.294.294 0 0 0 .248-.081.299.299 0 0 0 .084-.247v-.003Zm-2.668 42.664a.334.334 0 0 0-.401-.315.334.334 0 0 0-.256.263.335.335 0 0 0 .142.337.333.333 0 0 0 .183.056.292.292 0 0 0 .332-.34Zm1.334-1.327a.335.335 0 0 0-.205-.306.33.33 0 0 0-.361.072.336.336 0 0 0-.091.17.334.334 0 0 0 .325.396.294.294 0 0 0 .317-.195.296.296 0 0 0 .015-.132v-.005Zm1.334-1.335a.337.337 0 0 0-.666-.069.343.343 0 0 0 .146.346.334.334 0 0 0 .188.055.292.292 0 0 0 .332-.328v-.004Zm1.996-2.67a.33.33 0 0 0 .656.065.33.33 0 0 0-.325-.397.289.289 0 0 0-.321.2.285.285 0 0 0-.01.136v-.004Zm-1.334 1.335a.335.335 0 0 0 .665.069.334.334 0 0 0-.334-.4.289.289 0 0 0-.321.2.298.298 0 0 0-.01.136v-.005ZM376.18-24.671a.299.299 0 0 0 .195.327c.044.015.09.02.136.013v1.998a.978.978 0 0 0-.671.332l-.663.663-.662.672-.672.663-.662.672-.672.663a.968.968 0 0 0-.331.663c0 .228.17.392.501.502.377.119.77.176 1.165.17h2.668v4.328a.964.964 0 0 0-.672.34L364.526-1.336a.958.958 0 0 0-.34.672.94.94 0 0 0 .34.663l.662.672.664.664.671.663.662.672.672.664.662.672.663.663.671.663.663.672.671.663.663.672.662.663.672.664.662.671.671.664.663.671.663.664a.978.978 0 0 0 .671.331v4.337h-2.669a3.724 3.724 0 0 0-1.165.162c-.331.111-.5.28-.5.501a.99.99 0 0 0 .331.672l.671.663L375.179 20l.662.672a.99.99 0 0 0 .671.332V23a.332.332 0 0 0 0 .663v6.667a.98.98 0 0 1-.671-.332l-.662-.663-.663-.672-.671-.663a.954.954 0 0 1-.332-.663c0-.229.17-.392.502-.502l.994-.331c.339-.111.501-.28.501-.502a.988.988 0 0 0-.331-.672l-.663-.663-.671-.663-.663-.672-.671-.663-.663-.672-.662-.664-.672-.663-.662-.671-.672-.664-.662-.672-.663-.663-.671-.663-.663-.672-.671-.663a.969.969 0 0 1-.331-.672c0-.218.169-.383.501-.493a3.672 3.672 0 0 1 1.165-.17h6.661c.395.007.788-.05 1.165-.17.339-.11.501-.273.501-.493a.952.952 0 0 0-.331-.672l-1.997-1.998-.671-.664-.663-.671L369.854 8l-.671-.663-.663-.672-1.996-1.998-.672-.663-.663-.672-1.996-1.998-.672-.664-.662-.672a.95.95 0 0 1-.332-.663.985.985 0 0 1 .332-.672l.662-.663.672-.663.662-.672.671-.663.663-.672.663-.663.672-.664.662-.672.672-.663.662-.672.663-.663.671-.663.663-.672.671-.663.662-.672.663-.663.671-.663.663-.672.671-.663.663-.672a.948.948 0 0 0 .331-.663c0-.219-.162-.39-.501-.502a3.704 3.704 0 0 0-1.165-.162h-6.661a3.718 3.718 0 0 1-1.165-.17c-.331-.11-.501-.28-.501-.5a.949.949 0 0 1 .331-.664l1.334-1.335.671-.663.663-.672 1.996-1.998.672-.663.662-.672 1.997-1.998.671-.664.663-.672a.963.963 0 0 0 .331-.663c0-.218-.162-.392-.501-.501l-.994-.332c-.331-.111-.502-.28-.502-.502a.95.95 0 0 1 .332-.663l1.334-1.335.662-.672a.989.989 0 0 1 .671-.331V-25a.293.293 0 0 0-.32.195.29.29 0 0 0-.012.134Zm-5.998 6.667a.334.334 0 0 0-.401-.315.334.334 0 0 0-.256.262.335.335 0 0 0 .142.338.33.33 0 0 0 .183.055.29.29 0 0 0 .324-.203.305.305 0 0 0 .008-.138v.001Zm1.333-1.327a.337.337 0 0 0-.665-.069.343.343 0 0 0 .146.346.335.335 0 0 0 .188.055.294.294 0 0 0 .318-.199.287.287 0 0 0 .013-.133Zm-1.333 36a.335.335 0 0 0-.205-.306.33.33 0 0 0-.361.072.337.337 0 0 0-.091.17.334.334 0 0 0 .325.396.294.294 0 0 0 .251-.083.294.294 0 0 0 .081-.252v.003Zm1.333 1.335a.337.337 0 0 0-.572-.242.334.334 0 0 0 .053.519.334.334 0 0 0 .188.055.289.289 0 0 0 .321-.2.283.283 0 0 0 .01-.135v.003Zm3.331 3.997a.33.33 0 0 0 .656.065.33.33 0 0 0-.325-.396.293.293 0 0 0-.244.082.293.293 0 0 0-.087.243V22Zm-1.334-1.327a.332.332 0 0 0 .657.053.327.327 0 0 0-.021-.19.33.33 0 0 0-.305-.203.291.291 0 0 0-.331.337v.003Zm-1.334-1.335a.335.335 0 0 0 .665.069.334.334 0 0 0-.334-.4.292.292 0 0 0-.331.328v.003Zm.671-40.002a.336.336 0 1 0-.34.331.295.295 0 0 0 .34-.334v.003Zm1.326-1.335a.33.33 0 0 0-.656-.065.33.33 0 0 0 .325.396.29.29 0 0 0 .321-.199.283.283 0 0 0 .01-.135v.003Zm1.334-1.335a.33.33 0 1 0-.637.127.327.327 0 0 0 .306.204.289.289 0 0 0 .249-.082.289.289 0 0 0 .081-.25h.001Z" fill="#BF2C2F"/><path d="m343.206-5.334 1.997 1.998.663.672.671.663.662.664c.229.235.401.52.502.833.11.326.11.678 0 1.004-.1.313-.271.599-.502.833l-1.996 1.999-.663.672-.671.663-1.997 1.998-.663.672-.671.663-1.997 1.998-.662.672-.671.663-1.997 1.999-.662.671-.672.664-1.996 1.999-.663.671-.671.664-1.334 1.335a1.989 1.989 0 0 1-.663.437 2.08 2.08 0 0 1-.169.063c-.323.11-.672.11-.995 0a2.12 2.12 0 0 1-.832-.501l-17.984-18a2.122 2.122 0 0 1-.501-.834 1.567 1.567 0 0 1 0-1.003 2.17 2.17 0 0 1 .501-.834l.662-.663.672-.663.662-.672.672-.663.662-.672.663-.663.671-.664.663-.671.671-.664.662-.671.663-.664.671-.663.663-.672.671-.663.664-.672.662-.663.671-.663.663-.672.671-.663.664-.672.662-.663.672-.663.662-.672.671-.663.663-.672.663-.664.671-.663c.232-.232.518-.404.832-.501a1.52 1.52 0 0 1 .995 0c.059.019.115.04.169.063.25.097.475.246.663.437l.671.663 1.997 1.998.662.672.672.663 1.996 1.998.663.672.671.664 1.996 1.998.663.672.671.663 1.997 1.998.663.672.668.663ZM343.869-2l-1.997-1.998-.663-.672-.671-.663-1.997-1.998-.662-.672-.671-.663-1.997-2-.662-.671-.672-.663L331.881-14l-.663-.672-.671-.663-1.334-1.335a1.99 1.99 0 0 0-.663-.438 2.08 2.08 0 0 0-.169-.063 1.539 1.539 0 0 0-.995 0 2.12 2.12 0 0 0-.832.501L311.236-1.336c-.231.234-.403.52-.502.834a1.554 1.554 0 0 0 0 1.003c.098.315.27.601.502.834l.663.663.662.672.672.664.662.672.671.663.663.663.663.672.671.663.662.672.672.663.663.663.663.672.671.664.663.671.671.663.663.664.663.672.671.663.663.672.671.663.663.663.662.672.671.663c.235.23.52.402.833.501.322.11.672.11.994 0 .059-.018.115-.04.17-.063.248-.1.473-.248.662-.437l.672-.663.662-.672.672-.664.662-.663.663-.671.671-.664.663-.672.671-.663.663-.663.662-.672.671-.663.663-.672.671-.663.663-.663.662-.672.672-.663.662-.672.672-.663.662-.663.664-.672.671-.664.663-.672.671-.663c.227-.236.395-.522.493-.834a1.54 1.54 0 0 0 0-1.004 2.16 2.16 0 0 0-.493-.833l-.673-.666Z" fill="#ED5312"/><path d="M341.873-1.337c.228.236.4.521.502.834.11.325.11.678 0 1.003a2.123 2.123 0 0 1-.502.834l-12.662 12.67a1.968 1.968 0 0 1-.662.43 2.299 2.299 0 0 1-.17.063 1.52 1.52 0 0 1-.995 0 2.104 2.104 0 0 1-.832-.493l-1.334-1.335-.662-.672-.672-.663-1.996-1.998-.663-.672-.672-.663-1.996-1.999-.663-.672-.672-.663-1.996-1.999-.663-.672-.671-.663a2.109 2.109 0 0 1-.501-.833 1.567 1.567 0 0 1 0-1.004 2.17 2.17 0 0 1 .501-.834l.671-.663.663-.663.662-.672.672-.663.662-.672.672-.663.663-.663.663-.672.671-.663.662-.672.672-.663.663-.664.663-.671.671-.664.662-.671.672-.664.662-.663.663-.672.671-.663c.235-.23.52-.402.832-.502.323-.11.673-.11.995 0a2.3 2.3 0 0 1 .17.063c.248.1.473.249.662.438l.672.663.662.672.672.663.662.663.663.672.671.663.663.672.671.663.662.663.664.672.671.663.663.672.671.663.663.664.662.672.671.663.663.672.671.663.665.665Zm-2.166.834c-.098-.314-.27-.6-.501-.834l-9.995-10.003a1.966 1.966 0 0 0-.662-.43 2.254 2.254 0 0 0-.17-.063 1.517 1.517 0 0 0-.995 0 2.103 2.103 0 0 0-.832.493l-1.334 1.335-.662.672-.672.663-1.996 1.999-.663.672-.672.663-1.996 1.998-.663.672-.672.663-.662.663a2.14 2.14 0 0 0-.501.834c-.11.325-.11.678 0 1.003.099.314.271.6.501.834l1.996 1.998.663.672.671.663 1.997 1.999.662.671.671.664 1.997 1.998.662.672.672.663c.234.23.519.401.832.501.322.11.672.11.995 0 .059-.02.115-.04.169-.063a2 2 0 0 0 .663-.437l.671-.664.663-.671.671-.664.663-.671.662-.664.672-.663.662-.672.671-.663.663-.672.663-.663.672-.663.662-.672.671-.664.663-.672.663-.663c.232-.233.404-.52.501-.834.112-.324.113-.676.003-1h.001Z" fill="#388CBA"/><path d="M289.918-.002a.95.95 0 0 0 .332-.663.985.985 0 0 0-.332-.672L289.247-2l-.663-.663-.662-.672-.671-.663-.663-.672-.671-.663-.663-.663-.663-.672-.671-.663-.662-.672-.672-.663-.662-.664-.663-.671a.98.98 0 0 0-.671-.332v2.67c.259.017.5.137.671.332l.663.663.662.672.672.663 1.996 1.998.663.672.671.663.663.663a.988.988 0 0 1 .331.672.95.95 0 0 1-.331.663l-.663.672-.671.664-.663.663-.663.672-.671.664-.662.672-.672.663-.662.663-.663.672a.98.98 0 0 1-.671.332v2.67a.965.965 0 0 0 .671-.34l8.657-8.667ZM375.176-9.33l-.662.663-.672.663-.662.672-.672.663-.662.672-.663.663-.671.663-.663.672-.671.663-.663.672-.663.663-.671.664a.98.98 0 0 0-.331.672.948.948 0 0 0 .331.663l8.658 8.665a.965.965 0 0 0 .671.34v-2.67a.98.98 0 0 1-.671-.331l-.663-.672-.662-.663-.672-.663-.662-.672-.672-.664-.662-.672-.663-.663-.671-.664-.663-.672a.962.962 0 0 1-.331-.663.988.988 0 0 1 .331-.672l.663-.663.671-.663.663-.672 1.996-1.999.672-.663.662-.672.663-.663a.979.979 0 0 1 .671-.331v-2.67a.98.98 0 0 0-.671.332l-.663.672ZM337.046-.503c.11.325.11.678 0 1.003-.1.313-.272.599-.501.834l-.671.663-.663.672-1.996 2-.672.662-.662.672-1.997 1.998-.671.664c-.188.19-.413.34-.663.437-.054.022-.11.044-.169.062a1.52 1.52 0 0 1-.995 0 2.017 2.017 0 0 1-.832-.5L325.883 8l-.663-.663-.663-.672-.671-.663-.662-.672-.672-.663-.663-.664-.663-.671-.671-.664-.662-.672-.672-.663a2.111 2.111 0 0 1-.493-.834 1.554 1.554 0 0 1 0-1.004 2.16 2.16 0 0 1 .493-.833l.672-.663L321.889-4l.663-.672.672-.663 1.996-1.998.663-.672.671-.663c.235-.23.52-.401.832-.501.323-.11.672-.11.995 0a2.1 2.1 0 0 1 .169.063c.248.1.474.249.663.437l.671.663.663.672.671.664.663.671.662.664.672.663.662.672.671.663.663.672.663.663.671.663c.228.237.4.523.501.836Zm-2.668 0a2.14 2.14 0 0 0-.501-.834L333.215-2l-.672-.663-.662-.672-1.997-1.998-.671-.663a1.892 1.892 0 0 0-.663-.438 2.103 2.103 0 0 0-.169-.062 1.517 1.517 0 0 0-.995 0c-.314.097-.6.269-.832.501l-.671.663-.663.663-.663.672-.671.663-.662.672-.672.664-.663.663a2.17 2.17 0 0 0-.501.833c-.11.326-.11.678 0 1.004.1.313.271.598.501.833l4.664 4.669c.235.23.52.401.832.501.323.11.673.11.995 0 .059-.02.115-.04.17-.063.248-.1.473-.249.662-.437l1.334-1.335.671-.664.663-.672 1.996-1.998c.23-.234.402-.52.501-.833.111-.326.111-.68.001-1.006Z" fill="#20C7AB"/><path d="M309.731 7.831c.331-.11.501-.273.501-.493a.971.971 0 0 0-.332-.672l-.671-.663-.663-.672-.662-.663-.672-.663-.662-.672-.671-.664-.663-.672-.663-.663a2.03 2.03 0 0 1-.501-.834 1.554 1.554 0 0 1 0-1.003c.099-.314.271-.6.501-.834L309.9-6.67a.951.951 0 0 0 .332-.664c0-.218-.17-.392-.501-.502a3.705 3.705 0 0 0-1.165-.17h-10.655a3.761 3.761 0 0 0-1.172.17c-.331.11-.493.28-.493.502a.95.95 0 0 0 .331.664l.663.672.671.663.663.663.662.672.672.663.662.672.672.663.662.663c.228.236.4.521.501.834.11.325.11.678 0 1.003a2.11 2.11 0 0 1-.501.834l-5.327 5.332a.966.966 0 0 0-.331.672c0 .219.162.383.493.493a3.71 3.71 0 0 0 1.172.17h10.655c.394.007.788-.05 1.165-.169ZM353.861-1.336l.671-.663.662-.663.663-.672.671-.663.663-.672.671-.663.663-.664.662-.671a.946.946 0 0 0 .34-.664c0-.218-.17-.392-.501-.502a3.706 3.706 0 0 0-1.165-.17h-10.662a3.71 3.71 0 0 0-1.165.17c-.331.11-.501.28-.501.502a.967.967 0 0 0 .332.664l1.333 1.335.672.663.662.672L350.529-2l.671.663c.226.237.394.522.493.834a1.54 1.54 0 0 1 0 1.003 2.099 2.099 0 0 1-.493.834l-.671.663-.663.672-.671.664-.663.672-.662.663-.672.663-.662.672-.671.663a.956.956 0 0 0-.332.672c0 .219.17.383.501.493.377.12.77.177 1.165.17h10.662c.395.007.789-.05 1.165-.17.332-.11.501-.273.501-.493a.943.943 0 0 0-.34-.672l-.662-.663-.663-.672-.671-.663-1.997-1.999-.662-.672-.671-.663A2.11 2.11 0 0 1 353.36.5a1.567 1.567 0 0 1 0-1.003c.101-.313.273-.598.501-.834Z" fill="#388CBA"/><path d="M333.044-.503a1.54 1.54 0 0 1 0 1.004c-.097.314-.269.6-.501.833l-.663.663-.663.672-.671.664-.662.672-.672.663a1.997 1.997 0 0 1-.662.437 2.278 2.278 0 0 1-.17.064 1.54 1.54 0 0 1-.995 0 2.116 2.116 0 0 1-.832-.501l-.671-.664-.663-.672-1.996-1.998a2.105 2.105 0 0 1-.502-.833 1.567 1.567 0 0 1 0-1.004c.101-.313.273-.598.502-.834l.662-.663.672-.663.662-.672 1.334-1.335c.235-.227.52-.396.832-.493a1.52 1.52 0 0 1 .995 0c.059.019.115.04.17.062.247.098.473.244.662.431l3.331 3.333c.231.234.403.52.501.834Zm-2.659 0a2.17 2.17 0 0 0-.501-.834L329.212-2a1.997 1.997 0 0 0-.662-.437 2.283 2.283 0 0 0-.17-.063 1.54 1.54 0 0 0-.995 0 2.12 2.12 0 0 0-.832.5l-.671.664a2.147 2.147 0 0 0-.493.834 1.54 1.54 0 0 0 0 1.003 2.1 2.1 0 0 0 .493.834l.671.663c.233.233.518.405.832.501.322.112.673.112.995 0 .059-.018.115-.04.17-.062.249-.097.475-.246.662-.437l.672-.664c.229-.235.401-.52.501-.833.11-.326.11-.68 0-1.006Z" fill="#FFA227"/><path d="M328.551-1.098a1.22 1.22 0 0 0-.17-.073 1.538 1.538 0 0 0-.995 0 1.008 1.008 0 0 0-.671.663c-.11.325-.11.678 0 1.003a1.017 1.017 0 0 0 .671.664 1.517 1.517 0 0 0 1.165-.073.983.983 0 0 0 .501-.593c.11-.325.11-.678 0-1.003a.976.976 0 0 0-.501-.588Z" fill="#ED5312"/><path d="M281.423 1.835c.111.332.279.501.501.501a.936.936 0 0 0 .662-.34l.671-.663a.954.954 0 0 0 .332-.664c0-.228-.17-.391-.501-.501a1.517 1.517 0 0 0-.994 0 .99.99 0 0 0-.671.663 1.556 1.556 0 0 0 0 1.004Z" fill="#FFA227"/><path d="M317.727 15.833c.332-.11.501-.274.501-.502a.948.948 0 0 0-.331-.663l-.671-.663-.663-.672-.67-.663-.663-.672-.663-.663-.671-.663-.662-.672-.672-.663-.662-.672a.836.836 0 0 0-1.334 0l-.663.672-.671.663-.663.672-.662.663-.672.663-.662.672-.672.663-.662.672-.663.663a.96.96 0 0 0-.34.663c0 .229.17.392.502.502.377.119.77.176 1.165.17h10.662c.394.006.787-.051 1.162-.17ZM350.532 14.004l-.663-.672-.671-.663-.663-.672-.662-.663-.672-.663-.662-.672-.671-.663-.663-.672a.836.836 0 0 0-1.334 0l-.662.672-.672.663-.663.672-.663.663-.671.663-.663.672-.671.663-.662.672-.663.663a.949.949 0 0 0-.34.663c0 .229.17.392.501.502.377.119.77.176 1.165.17h10.662c.395.006.789-.051 1.165-.17.332-.11.501-.274.501-.502a.966.966 0 0 0-.331-.663l-.672-.663Z" fill="#20C7AB"/><path d="M325.721 23.835c.331-.11.501-.28.501-.501a.94.94 0 0 0-.34-.663l-.663-.672-.663-.664-.671-.663-.663-.672-.671-.663-.663-.672-.662-.663-.672-.663-.662-.672a.836.836 0 0 0-1.334 0l-.663.672-.671.663L315.228 20l-.663.672-.671.663-1.334 1.335a.952.952 0 0 0-.331.664c0 .218.169.391.501.501.376.118.77.176 1.164.17h10.663c.394.006.787-.052 1.164-.17ZM337.207 16.666a.95.95 0 0 0-.662-.332.984.984 0 0 0-.672.332l-.662.672-.663.663-.671.663-.663.672-.671.663-.662.672-.663.663-.671.664-.663.671a.95.95 0 0 0-.331.664c0 .218.161.391.493.501.379.118.775.175 1.172.17h10.654a3.7 3.7 0 0 0 1.165-.17c.331-.11.501-.28.501-.501a.968.968 0 0 0-.332-.663l-5.999-6.004Z" fill="#FFA227"/><path d="m334.549 30-.672-.663-.662-.672-.672-.663-.662-.663-.663-.672-.671-.663-.663-.672-.671-.663a1.996 1.996 0 0 0-.662-.438 2.431 2.431 0 0 0-.17-.063 1.54 1.54 0 0 0-.994 0c-.313.1-.598.272-.833.501l-.671.663-.663.672-1.996 1.998-.672.664-.662.672-1.334 1.335a.95.95 0 0 0-.331.663c0 .218.169.39.501.501.377.116.77.17 1.164.162h11.988c.394.008.788-.046 1.165-.162.339-.111.501-.28.501-.501a.95.95 0 0 0-.331-.663l-.664-.673Z" fill="#388CBA"/></g><defs><clipPath id="a"><path fill="#fff" transform="translate(.334)" d="M0 0h368.667v32H0z"/></clipPath></defs></svg>