<svg width="19" height="18" fill="none" xmlns="http://www.w3.org/2000/svg"><path d="m1.083 8.556 1.124 5.059a.562.562 0 0 0 1.097-.245L2.18 8.312a.562.562 0 0 0-1.097.244Zm1.088 9.025 1.124-3.934-.54.408h2.249a.562.562 0 0 1 .562.562v2.81a.562.562 0 0 0 1.124 0v-2.81a1.686 1.686 0 0 0-1.686-1.687H2.755a.562.562 0 0 0-.54.408l-1.124 3.935a.562.562 0 1 0 1.08.308Zm14.65-9.27-1.125 5.06a.562.562 0 1 0 1.097.244l1.124-5.059a.562.562 0 1 0-1.097-.244Zm1.088 8.962-1.124-3.935a.562.562 0 0 0-.54-.407h-2.248a1.686 1.686 0 0 0-1.686 1.686v2.81a.562.562 0 0 0 1.124 0v-2.81a.562.562 0 0 1 .562-.562h2.248l-.54-.408 1.124 3.934a.562.562 0 1 0 1.08-.308ZM8.94 5.06v12.366a.562.562 0 0 0 1.123 0V5.061a.562.562 0 1 0-1.124 0Zm-3.373 5.621h7.869a.562.562 0 0 0 0-1.124h-7.87a.562.562 0 0 0 0 1.124ZM1.63 4.5l7.543-3.275c.222-.12.43-.12.601-.025l7.628 3.317-.033-.017H1.63Zm0 1.124H17.37a1.124 1.124 0 0 0 .516-2.122L10.276.194C9.813-.07 9.186-.07 8.674.219L1.15 3.484c-.408.21-.641.594-.642 1.014A1.124 1.124 0 0 0 1.63 5.623h.001Z" fill="#1A3A37"/></svg>