<svg width="22" height="22" fill="none" xmlns="http://www.w3.org/2000/svg"><path d="M11 21.214c5.64 0 10.214-4.573 10.214-10.214S16.64.786 10.999.786C5.36.786.785 5.359.785 11S5.358 21.214 11 21.214Z" stroke="#000" stroke-width="1.5" stroke-linecap="round" stroke-linejoin="round"/><path d="M1.57 14.929h2.75a2.75 2.75 0 0 0 2.75-2.75V9.82a2.75 2.75 0 0 1 2.75-2.75 2.75 2.75 0 0 0 2.75-2.75V.896m8.643 9.947a5.594 5.594 0 0 0-2.546-.629H15.32a2.75 2.75 0 0 0 0 5.5 1.965 1.965 0 0 1 1.965 1.965v1.367" stroke="#000" stroke-width="1.5" stroke-linecap="round" stroke-linejoin="round"/></svg>